<?xml version="1.0" encoding="UTF-8"?>
<svg class="main-header__logo-image" width="110" height="60" fill="#ffffff" role="presentation" version="1.1" viewBox="0 0 799.28 173.13" xmlns="http://www.w3.org/2000/svg"><g stroke-width="1.641"><path d="m68.95 93.354c0-13.292-10.01-22.645-22.317-22.645-12.307 0-22.317 9.5176-22.317 22.645 0 12.964 10.01 22.645 22.317 22.645 12.307 0 22.317-9.3535 22.317-22.645zm0.16412 39.547v-10.338c-6.0716 7.0562-15.097 11.487-25.927 11.487-22.481 0-39.383-17.394-39.383-40.696 0-23.302 17.722-40.86 39.875-40.86 10.502 0 19.363 4.4306 25.435 11.323v-10.01h20.02v79.094z"/><path d="m186.94 115.34c-7.0562 0-9.0253-2.4614-9.0253-9.1894v-34.953h12.964v-17.23h-12.964v-19.199h-20.676v19.199h-26.584v-4.7588c0-6.5638 2.6255-9.1894 9.8458-9.1894h4.5947v-15.261h-9.8458c-17.066 0-25.107 5.4152-25.107 21.825v7.5484h-11.487v17.066h11.487v61.864h20.676v-61.864h26.584v38.727c0 16.081 6.3997 23.138 23.138 23.138h10.666v-17.558h-4.2665z"/><path d="m260.94 86.297c-1.4769-10.338-10.174-16.41-20.348-16.41-10.174 0-18.543 6.0716-20.676 16.41zm-41.188 12.307c1.4768 11.651 10.174 18.379 21.168 18.379 8.6971 0 15.425-3.9383 19.363-10.338h21.168c-4.9229 16.738-20.512 27.568-40.86 27.568-24.779 0-42.009-16.738-42.009-40.532 0-23.794 18.379-41.024 42.501-41.024 24.45 0 42.009 17.394 42.009 41.024 0 1.805-0.16406 3.446-0.4923 5.087h-62.849z"/><path d="m414.04 93.354c0-12.8-10.01-22.645-22.317-22.645-12.307 0-22.317 9.5176-22.317 22.645 0 12.964 10.01 22.645 22.317 22.645 12.471 0 22.317-9.8458 22.317-22.645zm-64.818-39.383h20.184v10.338c6.0716-7.2202 15.097-11.651 25.927-11.651 22.153 0 39.383 17.558 39.383 40.696 0 23.302-17.722 40.86-39.875 40.86-10.338 0-18.871-3.9383-24.779-10.666v41.845h-20.84z"/><path d="m507.25 93.354c0-13.292-10.01-22.645-22.317-22.645-12.307 0-22.317 9.5176-22.317 22.645 0 12.964 10.01 22.645 22.317 22.645 12.307 0 22.317-9.3535 22.317-22.645zm0.16409 39.547v-10.338c-6.0716 7.0562-15.097 11.487-25.927 11.487-22.481 0-39.383-17.394-39.383-40.696 0-23.302 17.722-40.86 39.875-40.86 10.502 0 19.363 4.4306 25.435 11.323v-10.01h20.184v79.094z"/><path d="m312.96 61.683s5.087-9.1894 17.722-9.1894c5.4152 0 8.8612 1.8051 8.8612 1.8051v20.184s-7.5484-4.5947-14.44-3.6101c-6.892 0.98458-11.323 7.0561-11.323 15.261v46.767h-20.84v-79.094h20.184v7.8766z"/><path d="m621.46 53.971-50.87 111.26h-21.497l20.02-42.993-33.64-68.264h24.286l19.692 45.619 20.184-45.619z"/><path d="m783.59 49.194-50.378-28.06c-14.769-8.2048-33.311 2.1332-33.311 18.543v2.9537c0 2.6255 1.4768 5.087 3.7742 6.2357l9.5176 5.2511c2.7896 1.641 6.2356-0.32819 6.2356-3.446v-7.2202c0-3.6101 3.9383-5.7434 7.2203-4.1024l43.65 24.286c3.282 1.8051 3.282 6.2357 0 8.0407l-43.485 24.45c-3.2819 1.805-7.2202-0.4923-7.2202-4.1024v-3.7742c0-16.574-18.543-26.748-33.312-18.543l-50.378 28.06c-14.769 8.2048-14.769 28.881 0 37.086l50.378 28.06c14.769 8.2048 33.312-2.1333 33.312-18.543v-2.9537c0-2.6255-1.4769-4.9229-3.7742-6.2356l-9.5176-5.2511c-2.7896-1.641-6.2357 0.3282-6.2357 3.446v7.2202c0 3.6101-3.9383 5.7434-7.2202 4.1024l-43.65-24.286c-3.282-1.8051-3.282-6.2356 0-8.0407l43.65-24.286c3.2819-1.8051 7.2202 0.49229 7.2202 4.1024v3.7742c0 16.574 18.543 26.748 33.312 18.543l50.378-28.06c14.769-8.3689 14.769-29.045-0.16404-37.25z"/></g></svg>
