<?xml version="1.0" encoding="UTF-8"?>
<svg width="21px" height="18px" viewBox="0 0 21 18" version="1.1" xmlns="http://www.w3.org/2000/svg" xmlns:xlink="http://www.w3.org/1999/xlink">
    <title>DA615807-B4DD-4156-8DE3-972E30B19126</title>
    <g id="6.-Styleguide" stroke="none" stroke-width="1" fill="none" fill-rule="evenodd">
        <g id="Pricing-Variations---Style-Guide-Final" transform="translate(-245.000000, -2444.000000)" stroke="#333333">
            <g id="Mobile" transform="translate(77.000000, 1673.000000)">
                <g id="sample" transform="translate(9.000000, 33.000000)">
                    <g id="Group-12">
                        <g id="Group-11" transform="translate(67.000000, 38.000000)">
                            <g id="Group-14" transform="translate(0.000000, 61.000000)">
                                <g id="Group-9" transform="translate(0.000000, 621.000000)">
                                    <g id="Australian-owned" transform="translate(92.000000, 18.000000)">
                                        <path d="M16.4492981,16.6157307 L15.4302228,16.720644 C15.7064096,16.9126406 16.0166168,17.0540301 16.3857217,17.1287826 L16.4492981,16.6157307 Z M15.1745243,1.25793005 C15.1450647,1.41983022 15.1411175,1.60289213 15.113145,2.11679235 L15.1123035,2.13221797 L15.1104002,2.14853792 C15.0694289,2.49379375 14.9981323,2.83639798 14.8784188,3.16374857 C14.7597777,3.48826481 14.6301739,3.90995665 13.495749,3.92534206 C13.4571824,3.92586511 13.419764,3.92588725 13.3834553,3.9254293 C13.3486681,3.91060106 13.3143639,3.89539932 13.2803903,3.8798054 C12.7860535,3.65290415 12.309039,3.31878993 11.8432622,2.98881961 C11.5424611,2.77572298 11.2298293,2.57449775 11.1266543,1.7076278 C11.1175295,1.63096188 11.1112192,1.55897239 11.1074648,1.49123971 C11.1509825,1.44035723 11.1912299,1.38830763 11.2319383,1.33716133 C11.3183293,1.2286191 11.4091506,1.12118724 11.4761813,0.984731443 C11.2688199,0.992902868 11.0038598,1.00558904 10.6497328,1.01882396 L10.6411909,1.01914266 L10.632589,1.01917044 C10.262997,1.02030131 9.89383922,1.02135544 9.52465629,1.01137885 C9.20443674,1.00275442 9.1116282,1.35021588 8.51610143,2.24533747 C8.4818979,2.29674795 8.44871994,2.34593093 8.41658751,2.393028 C8.34658415,2.42030585 8.2761493,2.44172315 8.20604341,2.4569657 C7.90417356,2.52259876 7.54921883,2.48661422 7.21396026,2.35287333 C7.03228158,2.28039833 6.85780675,2.17463426 6.59290929,2.02631632 L5.65433548,2.90190847 C5.34297802,3.17096841 5.01907097,3.44841566 4.58514381,4.19138869 C4.02436395,5.19353429 2.84464456,5.75899106 1.42296401,6.2886202 L1.40657109,6.29472156 L1.38267013,6.30171557 C1.19613166,6.35371286 0.953140251,6.3752828 0.851857844,6.49982692 C0.722700047,6.65871128 0.723196572,6.90066829 0.602209706,7.49718267 L0.598187688,7.5169237 L0.592007821,7.53840837 C0.545121492,7.69840024 0.480658802,7.86133307 0.503362074,8.02345949 C0.54632683,8.33035709 0.768962758,8.66166642 1.15662235,9.3306723 L1.16278003,9.34130338 L1.16976709,9.35486935 C1.50700351,10.0186074 1.82355104,10.6999889 2.01437032,11.4207172 C2.14324,11.9074495 2.17129202,12.3602788 2.26974557,13.0384351 C2.31027257,13.0339179 2.3487245,13.0243968 2.38552421,13.0100917 C2.62042316,12.9187796 2.79788763,12.7079889 3.17959663,12.3283895 L3.18231957,12.3256822 L3.19031508,12.3180433 C3.72002843,11.8217553 4.34015447,11.388323 5.05074049,11.1941786 C6.32433959,10.8154206 7.69712964,10.4883756 8.57779036,10.4883756 C9.22624988,10.4883756 9.74903322,10.7031042 10.1600264,11.0533376 C10.464705,11.3129735 10.701,11.6590262 11.0452953,12.1560084 L11.0538526,12.143924 C11.2581568,11.8570322 11.4687343,11.594447 12.0639124,11.5984109 C12.2200086,11.5994505 12.3494083,11.6184706 12.4589943,11.6511923 C12.4861757,11.7577088 12.514387,11.8623687 12.5428646,11.9664756 C12.7170252,12.6031639 12.9102862,13.2525873 13.4473119,14.0907153 L13.4562576,14.1046445 L13.4684786,14.1270238 C13.5502341,14.281877 13.6045225,14.4749784 13.7958078,14.5437008 C13.919092,14.5880129 14.0533962,14.5832447 14.184254,14.5812133 L16.856502,14.1403466 C16.9346512,13.9450038 17.0269413,13.7532028 17.132553,13.5714487 C17.2728308,13.3299846 17.4426683,13.1161 18.1192737,12.2936589 L18.1264406,12.2849476 L18.1369429,12.2733237 C18.3624343,12.0275084 18.5965751,11.7894533 19.1302368,11.3128193 L19.1420163,11.3023033 L19.1573906,11.2902395 C19.2943418,11.1843091 19.442246,11.0913196 19.5225467,10.9187342 C19.6124148,10.7255877 19.6383022,10.5099067 19.650715,10.2984907 C19.6742658,9.89812011 19.6604415,9.45646538 19.5418909,9.06949263 C19.4625539,8.81051413 19.3211068,8.57013981 19.0126209,8.0089983 L19.0094078,8.00315301 L19.0046136,7.99382162 C18.8819745,7.75138702 18.764329,7.50159159 18.646137,7.25047296 C18.4158672,6.76122622 18.1817891,6.26750621 17.3451468,5.39455289 C17.0508701,5.14703628 16.8092167,4.84014967 16.6338009,4.50011838 C16.5028767,4.24637051 16.3982179,3.97859358 16.1835579,2.62956028 L15.3859997,1.81206349 C15.3620466,1.61110913 15.3424406,1.40564739 15.2834701,1.20980621 C15.2705486,1.16690515 15.2559698,1.12464106 15.1745243,1.25793005 Z" id="Combined-Shape-Copy"></path>
                                    </g>
                                </g>
                            </g>
                        </g>
                    </g>
                </g>
            </g>
        </g>
    </g>
</svg>