<?xml version="1.0" encoding="UTF-8"?>
<svg width="25px" height="22px" viewBox="0 0 25 22" version="1.1" xmlns="http://www.w3.org/2000/svg" xmlns:xlink="http://www.w3.org/1999/xlink">
    <title>EAFAD6CB-D9F5-4C0D-AD2F-392245802DFF</title>
    <g id="FINAL-UI-Design" stroke="none" stroke-width="1" fill="none" fill-rule="evenodd">
        <g id="Header-Desktop-1600px" transform="translate(-775.000000, -8.000000)" stroke="#FFFFFF">
            <g transform="translate(0.000000, -4.000000)" id="Header-1600px">
                <g>
                    <g id="KEY-LINE">
                        <g id="Keyline---Australian-Owned" transform="translate(775.000000, 12.000000)">
                            <g id="Australian-owned">
                                <path d="M20.2321257,20.1832982 L18.5353392,20.3579816 C19.0754863,20.8699821 19.6019802,21.244018 20.0756702,21.4458713 L20.2321257,20.1832982 Z M18.4387172,1.51003007 C18.4011174,1.71234699 18.3957132,1.93743928 18.3606748,2.58115162 L18.3598374,2.59651201 L18.35793,2.61289719 C18.3088692,3.02632176 18.223739,3.43663943 18.0803821,3.82864183 C17.9280518,4.2453073 17.6126934,4.61413646 17.1932404,4.73367198 C16.8935517,4.8190831 16.5637946,4.77227197 16.2778587,4.64096596 C15.6797694,4.36644215 15.1029052,3.96159144 14.5393283,3.5623365 C14.1899576,3.31483174 13.8292617,3.07955645 13.7095765,2.07396887 C13.7006279,1.99878303 13.6939997,1.9274669 13.6895126,1.85972731 C13.7325136,1.80785829 13.7735504,1.7554048 13.8148606,1.7035024 C13.958634,1.52286448 14.1096554,1.34395633 14.1945104,1.08663131 C13.9180822,1.0953464 13.5480291,1.1141696 13.0121904,1.13419569 L13.0036683,1.13451376 L12.9950466,1.13454217 C12.5444378,1.13592093 12.0943582,1.13722267 11.6442481,1.12505914 C11.2338508,1.11400596 11.1014208,1.50229917 10.3160602,2.68275538 C10.2815473,2.73463089 10.2479582,2.78475233 10.2152928,2.83320544 C10.1455944,2.85876853 10.0756748,2.87923527 10.0060022,2.89438361 C9.65659408,2.97035252 9.24599535,2.92721761 8.85823194,2.77253156 C8.62458898,2.67932703 8.40095734,2.54028804 8.04551391,2.34258106 C7.81156212,2.56593069 7.57734898,2.78900467 7.34310827,3.0120649 C7.18367606,3.16390657 7.00821455,3.31580195 6.82940274,3.47031338 C6.4447836,3.80266306 6.04381155,4.14955529 5.50811882,5.06677203 C4.8326894,6.27376763 3.40778327,6.94590269 1.70038941,7.58197072 L1.68288861,7.58848544 L1.66009553,7.59506609 C1.40758841,7.66545203 1.09026604,7.7077416 0.954955299,7.87412941 C0.790597137,8.07631574 0.781708736,8.3790514 0.627140196,9.14113707 L0.623075134,9.16112023 L0.616938311,9.18236277 C0.555051787,9.39354033 0.475317225,9.60858591 0.505182861,9.82185951 C0.556485066,10.1883116 0.81193042,10.585923 1.03025646,10.953522 C1.14072398,11.1395179 1.24656467,11.3185542 1.33065556,11.4840565 C1.73928442,12.2883069 2.12337323,13.113752 2.35459788,13.9870922 C2.51734731,14.601786 2.54752247,15.1721438 2.67876984,16.050515 C2.77926214,16.0539015 2.87074665,16.0378857 2.95589815,16.0047848 C3.25300744,15.8892898 3.48078941,15.6278767 3.96452306,15.1468165 L3.96682432,15.1445282 L3.97524151,15.1364703 C4.61003302,14.5417346 5.35247665,14.0206452 6.20449598,13.7883876 C7.74977849,13.3287982 9.41532387,12.9302368 10.483966,12.9302368 C11.2467752,12.9302368 11.8621377,13.1820937 12.345743,13.5942044 C12.7388161,13.9291669 13.0365383,14.384203 13.5000493,15.0522431 C13.5344018,15.0039452 13.5670251,14.9544142 13.6007713,14.9070265 C13.8320164,14.5823033 14.0691342,14.2824493 14.7440418,14.2869442 C14.8954676,14.2879527 15.0246531,14.3039871 15.1365181,14.3319562 C15.1647537,14.4407585 15.1937554,14.5481198 15.222994,14.6550089 C15.438392,15.4424508 15.6779058,16.2454106 16.3420494,17.2819296 L16.3517756,17.2970784 L16.3632161,17.3182381 C16.4767852,17.5333496 16.5626868,17.7863296 16.8239753,17.8802018 C16.9898183,17.9398108 17.1705741,17.934497 17.3466399,17.9323919 L20.6826884,17.3820116 C20.7809016,17.1282182 20.8990242,16.8786339 21.035857,16.6431494 C21.208458,16.3460465 21.4192336,16.0839946 21.8652537,15.5354459 C21.9870013,15.3821788 22.1123068,15.2251498 22.2492304,15.0758643 C22.5230523,14.7773624 22.8074319,14.4883887 23.4554153,13.9096496 L23.4673615,13.898984 L23.482569,13.8870697 C23.6641847,13.7465918 23.8555497,13.6199858 23.9616308,13.3919921 C24.0773328,13.143323 24.112466,12.8659775 24.1284607,12.5935566 C24.1579999,12.0913813 24.1394281,11.5376358 23.9907708,11.0523891 C23.8922857,10.7309055 23.7180335,10.4319649 23.3350155,9.73524808 L23.3320044,9.7297705 L23.3270082,9.72007141 C23.1775853,9.42469018 23.0342601,9.120334 22.8902556,8.81437232 C22.5958558,8.18887082 22.2994885,7.55573869 21.9340017,6.98592553 C21.8451033,6.84734002 21.6957549,6.78963426 21.3456538,6.56509677 L21.3219187,6.54981593 L21.2979506,6.53036588 C20.9373231,6.23372393 20.6419337,5.86206421 20.4289467,5.44920368 C20.2528798,5.10796342 20.1312631,4.7398654 20.0624647,4.36310049 C20.0264376,4.16597238 20.026174,3.95911314 20.0292136,3.75329236 C20.0312139,3.61784468 20.0293948,3.48398141 19.9244988,3.20300536 L18.9108903,2.16405721 C18.8831397,1.92395878 18.8564477,1.67994406 18.7861893,1.44661579 C18.7522066,1.33378896 18.7102992,1.2239289 18.4387172,1.51003007 Z" id="Combined-Shape"></path>
                            </g>
                        </g>
                    </g>
                </g>
            </g>
        </g>
    </g>
</svg>