<?xml version="1.0" encoding="UTF-8"?>
<svg width="151px" height="35px" viewBox="0 0 151 35" version="1.1" xmlns="http://www.w3.org/2000/svg" xmlns:xlink="http://www.w3.org/1999/xlink">
    <title>FA0E6B90-13D8-456C-B997-9808EE45CC88</title>
    <g id="FINAL-UI-Design" stroke="none" stroke-width="1" fill="none" fill-rule="evenodd">
        <g id="Header-Desktop-1600px" transform="translate(-1402.000000, -59.000000)" fill-rule="nonzero">
            <g transform="translate(0.000000, -4.000000)" id="Header-1600px">
                <g>
                    <g id="Middle" transform="translate(0.000000, 44.000000)">
                        <g id="Group-4" transform="translate(233.000000, 19.000000)">
                            <g id="kings-logo" transform="translate(1169.000000, 0.000000)">
                                <g id="adventurekings_colour" transform="translate(1.842105, 2.763158)">
                                    <polygon id="Path" fill="#0033A1" points="146.447368 0 116.616564 0 114.860117 0 86.7533651 0 85.027512 0 72.3454607 0 69.7251873 6.53307788 65.7947772 0 56.9243599 0 55.1967071 0 47.0389466 0 42.5146558 0 27.9861756 0 25.5152722 1.7599459 26.227929 0 11.7894307 0 0 29.4736842 14.4384983 29.4736842 15.5110827 26.7598332 17.1487536 29.4736842 30.7234255 29.4736842 34.3263014 29.4736842 43.4072764 29.4736842 45.1637234 29.4736842 57.8475744 29.4736842 60.4354543 22.9406063 64.3658644 29.4736842 73.2380813 29.4736842 74.9945283 29.4736842 103.070686 29.4736842 104.825333 29.4736842 134.657938 29.4736842 142.320798 10.2639468"></polygon>
                                    <polygon id="Path" fill="#FFFFFF" points="12.6431332 26.7105263 15.4020204 19.6517114 19.553796 26.7105263 28.7769764 26.7105263 21.7193163 14.7120062 36.8421053 3.68421053 29.4886581 3.68421053 18.5158521 11.7119183 21.6583662 3.68421053 14.5720238 3.68421053 5.52631579 26.7105263"></polygon>
                                    <polygon id="Path" fill="#FFFFFF" points="55.9205413 26.7105263 60.1833924 15.7724768 66.5794587 26.7105263 72.9737353 26.7105263 81.9736842 3.68421053 74.8975661 3.68421053 70.6042917 14.62226 64.210015 3.68421053 57.8461617 3.68421053 48.8157895 26.7105263"></polygon>
                                    <polygon id="Path" fill="#FFFFFF" points="102.44742 26.7105263 107.658764 13.3786338 94.8970548 13.3786338 93.4778941 17.0142715 99.1616955 17.0142715 97.5045166 21.1352714 87.5560744 21.1352714 92.2036917 9.25763392 109.256886 9.25763392 111.447368 3.68421053 87.3198459 3.68421053 78.2894737 26.7105263"></polygon>
                                    <polygon id="Path" fill="#FFFFFF" points="132.842642 26.7105263 138.051916 13.3786338 121.089118 13.3786338 122.540413 9.25763392 139.651741 9.25763392 141.842105 3.68421053 117.714095 3.68421053 112.4744 17.0142715 129.555306 17.0142715 127.898216 21.1352714 110.874575 21.1352714 108.684211 26.7105263"></polygon>
                                    <path d="M88.8752602,2.47423018 L88.1645852,2.47423018 L87.9638715,2.76315789 L87.5,2.76315789 L88.8484984,0.921052632 L89.2558727,0.921052632 L89.3421053,2.76315789 L88.8782337,2.76315789 L88.8752602,2.47423018 Z M88.8752602,2.08746451 L88.8752602,1.72821577 C88.8752602,1.62273422 88.8841808,1.45763267 88.8752602,1.45763267 L88.8752602,1.45763267 C88.8752602,1.45763267 88.7696997,1.62273422 88.6953613,1.72821577 L88.4440975,2.08746451 L88.8752602,2.08746451 Z" id="Shape" fill="#FFFFFF"></path>
                                    <path d="M95.8251716,0.921052632 C96.505678,0.921052632 96.8843946,1.29618334 96.6319169,1.84820495 C96.3790746,2.38567762 95.7263996,2.7486859 94.9868666,2.76315789 L93.9473684,2.76315789 L94.7856734,0.925627396 L95.8251716,0.921052632 Z M95.1762249,2.3468543 C95.5689372,2.33367877 95.9110614,2.13576113 96.0381997,1.84820495 C96.1821909,1.53254618 95.9770528,1.33278146 95.6437032,1.33278146 L95.1742524,1.33278146 L94.7126916,2.3468543 L95.1762249,2.3468543 Z" id="Shape" fill="#FFFFFF"></path>
                                    <path d="M103.157895,0.921052632 L101.835091,2.76315789 L101.372332,2.76315789 L101.315789,0.921052632 L101.787476,0.921052632 L101.787476,1.93612142 C101.787476,2.14249836 101.772596,2.27396812 101.774084,2.27396812 L101.774084,2.27396812 C101.774084,2.27396812 101.852946,2.14249836 101.991327,1.93612142 L102.686209,0.921052632 L103.157895,0.921052632 Z" id="Path" fill="#FFFFFF"></path>
                                    <polygon id="Path" fill="#FFFFFF" points="108.933603 2.35040402 108.721053 2.76315789 106.842105 2.76315789 107.745445 0.921052632 109.605263 0.921052632 109.40334 1.33380651 108.159919 1.33380651 108.011134 1.63955012 108.990992 1.63955012 108.799696 2.02631579 107.821964 2.02631579 107.662551 2.35346145"></polygon>
                                    <path d="M116.973684,0.921052632 L116.19339,2.76315789 L115.694002,2.76315789 L115.458996,2.24950863 C115.354345,2.0186722 115.20563,1.66859576 115.201958,1.66859576 L115.201958,1.66859576 C115.201958,1.66859576 115.084455,1.95293732 114.913709,2.35499017 L114.741126,2.76315789 L114.210526,2.76315789 L114.99082,0.921052632 L115.490208,0.921052632 L115.739902,1.44693164 C115.815177,1.59980345 115.984088,2.0018563 115.98776,2.0018563 L115.98776,2.0018563 C115.98776,2.0018563 116.123623,1.67623935 116.264994,1.3414501 L116.448592,0.921052632 L116.973684,0.921052632 Z" id="Path" fill="#FFFFFF"></path>
                                    <polygon id="Path" fill="#FFFFFF" points="122.5 0.921052632 122.342908 1.33380651 121.736039 1.33380651 121.190352 2.76315789 120.712463 2.76315789 121.256496 1.33380651 120.657895 1.33380651 120.823254 0.921052632"></polygon>
                                    <path d="M129.868421,0.921052632 L129.384189,1.92529228 C129.123607,2.4663826 128.540887,2.76315789 127.886353,2.76315789 C127.231819,2.76315789 126.938407,2.46338487 127.201041,1.92529228 L127.685273,0.921052632 L128.278252,0.921052632 L127.798124,1.91480022 C127.64834,2.22356644 127.757087,2.36445977 128.083328,2.36445977 C128.409569,2.36445977 128.64553,2.2295619 128.795314,1.91480022 L129.275442,0.921052632 L129.868421,0.921052632 Z" id="Path" fill="#FFFFFF"></path>
                                    <path d="M134.534279,2.76315789 L134.406754,2.16390041 L134.187292,2.16390041 L133.982658,2.76315789 L133.552632,2.76315789 L134.182843,0.921052632 L134.850126,0.921052632 C135.294981,0.921052632 135.484786,1.17329111 135.354295,1.55241319 C135.270696,1.79780327 135.086145,1.99253934 134.850126,2.08440708 L135.014722,2.76315789 L134.534279,2.76315789 Z M134.322231,1.77101987 L134.618801,1.77101987 C134.749894,1.76822567 134.865096,1.68068264 134.906474,1.55241319 C134.942063,1.45304652 134.921303,1.33380651 134.767086,1.33380651 L134.470516,1.33380651 L134.322231,1.77101987 Z" id="Shape" fill="#FFFFFF"></path>
                                    <polygon id="Path" fill="#FFFFFF" points="142.094652 2.35040402 141.882428 2.76315789 140 2.76315789 140.901952 0.921052632 142.763158 0.921052632 142.561545 1.33380651 141.313667 1.33380651 141.167233 1.63955012 142.143463 1.63955012 141.952462 2.02631579 140.988964 2.02631579 140.829796 2.35346145"></polygon>
                                    <polygon id="Path" fill="#FFFFFF" points="51.5789474 3.68421053 44.3595161 3.68421053 44.3558644 3.69336394 42.369334 3.69336394 33.1578947 26.7105263 40.4065397 26.7105263 40.4101914 26.6995422 42.3967218 26.6995422"></polygon>
                                </g>
                            </g>
                        </g>
                    </g>
                </g>
            </g>
        </g>
    </g>
</svg>