<?xml version="1.0" encoding="UTF-8"?>
<svg width="142px" height="101px" viewBox="0 0 142 101" version="1.1" xmlns="http://www.w3.org/2000/svg" xmlns:xlink="http://www.w3.org/1999/xlink">
    <title>F083EDCF-B2CC-41AF-9959-C9F57D0CEF93</title>
    <g id="FINAL-UI-Design" stroke="none" stroke-width="1" fill="none" fill-rule="evenodd">
        <g id="Header-Desktop-1600px" transform="translate(-49.000000, -64.000000)">
            <g transform="translate(0.000000, -4.000000)" id="Header-1600px">
                <g>
                    <g id="Middle" transform="translate(0.000000, 44.000000)">
                        <g id="4WD_Logo" transform="translate(50.000000, 25.000000)">
                            <g id="4WD-Supacentre-Logo_V2-02">
                                <path d="M36.0143885,50.647482 C34.4188893,49.9332441 32.6825686,49.5889312 30.9352518,49.6402878 L21.8057554,49.6402878 C20.5323741,49.6402878 19.8561151,49.6402878 19.7625899,49.5971223 C19.4172662,49.4772182 19.2446043,49.0311751 19.2446043,48.2589928 C19.2446043,47.676259 19.618705,47.381295 20.3669065,47.381295 L35.4748201,47.381295 L35.4748201,42.5251799 L19.294964,42.5251799 C17.8800052,42.5124217 16.4654114,42.5772673 15.057554,42.7194245 C13.381295,42.9280576 12.1798561,43.352518 11.4604317,44 C10.6960577,44.8374235 10.3176821,45.9568936 10.4172662,47.0863309 L10.4172662,50.4964029 C10.4172662,51.9352518 11.4556355,52.9952038 13.5323741,53.676259 C15.2673078,54.2125938 17.0764102,54.4699963 18.8920863,54.4388489 L28.5179856,54.4388489 C29.1079137,54.4388489 29.4604317,54.5539568 29.5899281,54.7841727 C29.7158319,55.1140674 29.7626478,55.468883 29.7266187,55.8201439 C29.7266187,56.4100719 29.3381295,56.7122302 28.5611511,56.7410072 L10.4460432,56.7410072 L10.4460432,61.5611511 L29.6330935,61.5611511 C31.4964029,61.5611511 32.9136691,61.5107914 33.8705036,61.4100719 C35.1556209,61.3475122 36.3908013,60.8931063 37.4100719,60.1079137 C38.1877551,59.2857383 38.5777147,58.1708201 38.4820144,57.0431655 L38.4820144,54.1654676 C38.4820144,52.58753 37.6594724,51.4148681 36.0143885,50.647482 Z" id="Path" stroke="#231F20" stroke-width="5.65" fill="#000000" fill-rule="nonzero"></path>
                                <path d="M71.8848921,42.6043165 L71.8848921,57.0431655 C71.9720317,58.1511452 71.6000587,59.2462546 70.8561151,60.0719424 C69.8711898,60.8544848 68.6663797,61.3097471 67.4100719,61.3741007 C65.9759528,61.5185139 64.5347608,61.5809656 63.0935252,61.5611511 L51.3884892,61.5611511 C49.9256882,61.5822105 48.4628776,61.5197588 47.0071942,61.3741007 C45.7508865,61.3097471 44.5460764,60.8544848 43.5611511,60.0719424 C42.8198075,59.2450905 42.4504809,58.1501153 42.5395683,57.0431655 L42.5395683,42.6043165 L51.3381295,42.6043165 L51.3381295,55.4748201 C51.3034095,55.9857451 51.6349285,56.4498717 52.1294964,56.5827338 C52.709804,56.7136858 53.3049453,56.7669098 53.8992806,56.7410072 L60.5611511,56.7410072 C61.1555057,56.7677723 61.7507616,56.714538 62.3309353,56.5827338 C62.8272287,56.4523665 63.1599417,55.9865682 63.1223022,55.4748201 L63.1223022,42.6043165 L71.8848921,42.6043165 Z" id="Path" stroke="#231F20" stroke-width="5.65" fill="#231F20" fill-rule="nonzero"></path>
                                <path d="M103.553957,50.8776978 C103.65387,52.0101991 103.26361,53.1312139 102.482014,53.9568345 C101.462744,54.7420272 100.227563,55.196433 98.942446,55.2589928 C97.9832134,55.3597122 96.5707434,55.4100719 94.705036,55.4100719 L84.7338129,55.4100719 L84.7338129,61.5755396 L75.9352518,61.5755396 L75.9352518,42.6043165 L94.705036,42.6043165 C96.3165468,42.6043165 97.6402878,42.6546763 98.6618705,42.7553957 C100.431655,42.9640288 101.690647,43.381295 102.438849,44.0215827 C103.250463,44.8396087 103.658686,45.974733 103.553957,47.1223022 L103.553957,50.8776978 Z M94.7985612,48.3884892 C94.826729,48.1554328 94.7579605,47.9210342 94.6083455,47.7401361 C94.4587306,47.5592381 94.2413968,47.447713 94.0071942,47.4316547 L84.7338129,47.4316547 L84.7338129,50.5683453 L92.2374101,50.5683453 C93.6043165,50.5683453 94.3956835,50.4964029 94.5395683,50.3453237 C94.6834532,50.1942446 94.7985612,49.5395683 94.7985612,48.3884892 Z" id="Shape" stroke="#231F20" stroke-width="5.65" fill="#231F20" fill-rule="nonzero"></path>
                                <path d="M133.553957,61.5611511 L124.100719,61.5611511 L122.748201,58.9928058 L114.834532,58.9928058 L113.482014,61.5539568 L103.597122,61.5539568 L113.05036,42.6330935 L124.136691,42.6330935 L133.553957,61.5611511 Z M120.460432,54.1726619 L118.741007,48.618705 L116.741007,54.1726619 L120.460432,54.1726619 Z" id="Shape" stroke="#231F20" stroke-width="5.65" fill="#231F20" fill-rule="nonzero"></path>
                                <path d="M38.4820144,57.0431655 C38.5777147,58.1708201 38.1877551,59.2857383 37.4100719,60.1079137 C36.3908013,60.8931063 35.1556209,61.3475122 33.8705036,61.4100719 C32.9136691,61.5107914 31.4964029,61.5611511 29.6330935,61.5611511 L10.4460432,61.5611511 L10.4460432,56.7410072 L28.5611511,56.7410072 C29.3381295,56.7410072 29.7266187,56.4100719 29.7266187,55.8201439 C29.7626478,55.468883 29.7158319,55.1140674 29.5899281,54.7841727 C29.4604317,54.5539568 29.1079137,54.4388489 28.5179856,54.4388489 L18.9208633,54.4388489 C17.1051872,54.4699963 15.2960847,54.2125938 13.5611511,53.676259 C11.4796163,52.9856115 10.441247,51.9256595 10.4460432,50.4964029 L10.4460432,47.0863309 C10.3522525,45.9537366 10.7386031,44.8338417 11.5107914,44 C12.2302158,43.352518 13.4028777,42.9280576 15.1079137,42.7194245 C16.5157711,42.5772673 17.9303649,42.5124217 19.3453237,42.5251799 L35.5035971,42.5251799 L35.5035971,47.3956835 L20.3956835,47.3956835 C19.676259,47.3956835 19.2733813,47.6906475 19.2733813,48.2733813 C19.2733813,49.0455635 19.4460432,49.4916067 19.7913669,49.6115108 C19.8848921,49.6115108 20.5611511,49.6546763 21.8345324,49.6546763 L30.9352518,49.6546763 C32.6814668,49.5988003 34.4177399,49.9381851 36.0143885,50.647482 C37.6642686,51.4388489 38.4868106,52.6139089 38.4820144,54.1726619 L38.4820144,57.0431655 Z" id="Path" fill="#FFFFFF" fill-rule="nonzero"></path>
                                <path d="M71.8848921,42.6043165 L71.8848921,57.0431655 C71.9720317,58.1511452 71.6000587,59.2462546 70.8561151,60.0719424 C69.8711898,60.8544848 68.6663797,61.3097471 67.4100719,61.3741007 C65.9759528,61.5185139 64.5347608,61.5809656 63.0935252,61.5611511 L51.3884892,61.5611511 C49.9256882,61.5822105 48.4628776,61.5197588 47.0071942,61.3741007 C45.7508865,61.3097471 44.5460764,60.8544848 43.5611511,60.0719424 C42.8198075,59.2450905 42.4504809,58.1501153 42.5395683,57.0431655 L42.5395683,42.6043165 L51.3381295,42.6043165 L51.3381295,55.4748201 C51.3034095,55.9857451 51.6349285,56.4498717 52.1294964,56.5827338 C52.709804,56.7136858 53.3049453,56.7669098 53.8992806,56.7410072 L60.5611511,56.7410072 C61.1555057,56.7677723 61.7507616,56.714538 62.3309353,56.5827338 C62.8272287,56.4523665 63.1599417,55.9865682 63.1223022,55.4748201 L63.1223022,42.6043165 L71.8848921,42.6043165 Z" id="Path" fill="#FFFFFF" fill-rule="nonzero"></path>
                                <path d="M103.553957,50.8776978 C103.65387,52.0101991 103.26361,53.1312139 102.482014,53.9568345 C101.462744,54.7420272 100.227563,55.196433 98.942446,55.2589928 C97.9832134,55.3597122 96.5707434,55.4100719 94.705036,55.4100719 L84.7338129,55.4100719 L84.7338129,61.5755396 L75.9352518,61.5755396 L75.9352518,42.6043165 L94.705036,42.6043165 C96.3165468,42.6043165 97.6402878,42.6546763 98.6618705,42.7553957 C100.431655,42.9640288 101.690647,43.381295 102.438849,44.0215827 C103.250463,44.8396087 103.658686,45.974733 103.553957,47.1223022 L103.553957,50.8776978 Z M94.7985612,48.3884892 C94.826729,48.1554328 94.7579605,47.9210342 94.6083455,47.7401361 C94.4587306,47.5592381 94.2413968,47.447713 94.0071942,47.4316547 L84.7338129,47.4316547 L84.7338129,50.5683453 L92.2374101,50.5683453 C93.6043165,50.5683453 94.3956835,50.4964029 94.5395683,50.3453237 C94.6834532,50.1942446 94.7985612,49.5395683 94.7985612,48.3884892 Z" id="Shape" fill="#FFFFFF" fill-rule="nonzero"></path>
                                <path d="M133.553957,61.5611511 L124.100719,61.5611511 L122.748201,58.9928058 L114.834532,58.9928058 L113.482014,61.5539568 L103.597122,61.5539568 L113.05036,42.6330935 L124.136691,42.6330935 L133.553957,61.5611511 Z M120.460432,54.1726619 L118.741007,48.618705 L116.741007,54.1726619 L120.460432,54.1726619 Z" id="Shape" fill="#FFFFFF" fill-rule="nonzero"></path>
                                <polygon id="Path" fill="#ED1C24" fill-rule="nonzero" points="7.21582734 37.4676259 69.9568345 4.16546763 132.697842 37.4676259"></polygon>
                                <path d="M36.6258993,29.6115108 L45.2733813,20.8633094 L53.0215827,20.8633094 L53.0215827,29.7625899 L55.7985612,29.7625899 L55.7985612,33.3165468 L53.0215827,33.3165468 L53.0215827,35.5539568 L47.6258993,35.5539568 L47.6258993,33.3165468 L36.6258993,33.3165468 L36.6258993,29.6115108 Z M47.6258993,24.4604317 L42.1510791,29.7913669 L47.6258993,29.7913669 L47.6258993,24.4604317 Z" id="Shape" fill="#FFFFFF" fill-rule="nonzero"></path>
                                <polygon id="Path" fill="#FFFFFF" fill-rule="nonzero" points="54.8345324 20.4604317 60.7194245 20.4604317 62.705036 29.676259 62.7482014 29.676259 65.0143885 20.4604317 69.8633094 20.4604317 72.1079137 29.676259 72.1510791 29.676259 74.1366906 20.4604317 80.0215827 20.4604317 75.5107914 35.5683453 69.5395683 35.5683453 67.4460432 27.1798561 67.4028777 27.1798561 65.2877698 35.5539568 59.3165468 35.5539568"></polygon>
                                <path d="M80.4100719,20.4604317 L92.2517986,20.4604317 C97.4676259,20.4604317 100.230216,22.4460432 100.230216,28.0071942 C100.230216,33.3165468 97.4892086,35.5539568 92.381295,35.5539568 L80.4100719,35.5539568 L80.4100719,20.4604317 Z M86.4892086,31.7482014 L89.9856115,31.7482014 C92.7697842,31.7482014 93.8920863,30.3956835 93.8920863,28.0071942 C93.8920863,25.618705 92.7697842,24.2661871 89.9856115,24.2661871 L86.4892086,24.2661871 L86.4892086,31.7482014 Z" id="Shape" fill="#FFFFFF" fill-rule="nonzero"></path>
                                <path d="M30.705036,75.5899281 C30.4234879,77.4144156 29.3765302,79.0319652 27.8273381,80.0359712 C26.1654676,81.0791367 23.5755396,81.6618705 19.4460432,81.6618705 C15.3165468,81.6618705 7.72661871,81.4172662 7.72661871,74.0071942 C7.72661871,66.5971223 15.3381295,66.3597122 19.4244604,66.3597122 C23.5107914,66.3597122 29.7985612,66.7985612 30.6834532,72.4676259 L23.0719424,72.4676259 C22.8776978,71.4460432 22.0647482,69.9640288 19.4748201,69.9640288 C16.7122302,69.9640288 14.9640288,71.1007194 14.9640288,74.0071942 C14.9640288,76.9136691 16.6690647,78.057554 19.1366906,78.057554 C21.294964,78.057554 22.5467626,77.3381295 23.1007194,75.5899281 L30.705036,75.5899281 Z" id="Path" fill="#ED1C24" fill-rule="nonzero"></path>
                                <polygon id="Path" fill="#ED1C24" fill-rule="nonzero" points="32.1942446 66.8561151 50.4172662 66.8561151 50.4172662 70.3453237 38.9640288 70.3453237 38.9640288 72.2661871 49.6402878 72.2661871 49.6402878 75.7482014 38.9640288 75.7482014 38.9640288 77.6978417 50.4172662 77.6978417 50.4172662 81.1798561 32.1942446 81.1798561"></polygon>
                                <polygon id="Path" fill="#ED1C24" fill-rule="nonzero" points="51.7410072 66.8561151 59.4748201 66.8561151 66.3381295 74.7697842 66.4100719 74.7697842 66.4100719 66.8561151 72.8848921 66.8561151 72.8848921 81.1582734 65.4676259 81.1582734 58.2733813 73.1510791 58.2230216 73.1510791 58.2230216 81.1582734 51.7482014 81.1582734"></polygon>
                                <polygon id="Path" fill="#ED1C24" fill-rule="nonzero" points="79.8129496 70.4604317 73.5395683 70.4604317 73.5395683 66.8633094 92.8489209 66.8633094 92.8489209 70.4604317 86.5827338 70.4604317 86.5827338 81.1582734 79.8129496 81.1582734"></polygon>
                                <path d="M93.5251799,66.8561151 L107.784173,66.8561151 C109.157847,66.7695822 110.535351,66.9478761 111.841727,67.381295 C113.230731,67.9770725 114.142491,69.3306434 114.172662,70.8417266 C114.22416,72.4405112 113.087664,73.8319508 111.510791,74.1007194 L111.510791,74.1438849 C112.582092,74.3531498 113.378993,75.2563041 113.453237,76.3453237 L113.741007,79.4676259 C113.829703,80.1057988 114.125413,80.697219 114.582734,81.1510791 L107.194245,81.1510791 C106.956835,80.7338129 106.956835,80.1079137 106.834532,78.4460432 C106.76259,77.3884892 106.330935,76.7482014 105.079137,76.7482014 L100.280576,76.7482014 L100.280576,81.1510791 L93.5251799,81.1510791 L93.5251799,66.8561151 Z M100.294964,73.1510791 L105.035971,73.1510791 C106.359712,73.1510791 106.913669,72.705036 106.913669,71.8057554 C106.913669,70.7266187 106.071942,70.4604317 104.942446,70.4604317 L100.23741,70.4604317 L100.294964,73.1510791 Z" id="Shape" fill="#ED1C24" fill-rule="nonzero"></path>
                                <polygon id="Path" fill="#ED1C24" fill-rule="nonzero" points="115.683453 66.8561151 133.906475 66.8561151 133.906475 70.3453237 122.453237 70.3453237 122.453237 72.2661871 133.093525 72.2661871 133.093525 75.7482014 122.453237 75.7482014 122.453237 77.6978417 133.906475 77.6978417 133.906475 81.1798561 115.683453 81.1798561"></polygon>
                                <line x1="4.78417266" y1="85.5251799" x2="136.863309" y2="85.5251799" id="Path" stroke="#231F20" stroke-width="1.43"></line>
                                <line x1="4.78417266" y1="87.7841727" x2="136.863309" y2="87.7841727" id="Path" stroke="#231F20" stroke-width="0.72"></line>
                                <polyline id="Path" stroke="#231F20" stroke-width="2.08" stroke-linecap="round" stroke-linejoin="round" points="0.26618705 37.4676259 70.2733813 0.323741007 139.294964 37.4676259"></polyline>
                                <path d="M10.6402878,91.0431655 L12.5395683,99.1870504 L10.381295,99.1870504 L10.1726619,97.7482014 L8.54676259,97.7482014 L8.3381295,99.1870504 L6.17985612,99.1870504 L8.05035971,91.0431655 L10.6402878,91.0431655 Z M9.35251799,92.7122302 L8.79856115,96.1654676 L9.92805755,96.1654676 L9.36690647,92.7122302 L9.35251799,92.7122302 Z" id="Shape" fill="#231F20" fill-rule="nonzero"></path>
                                <path d="M16.2158273,92.5755396 C16.1378922,92.4138476 15.9706294,92.3146239 15.7913669,92.323741 C15.6583432,92.3191044 15.5280974,92.3625197 15.4244604,92.4460432 C15.3144453,92.5722054 15.2421462,92.7267758 15.2158273,92.8920863 C15.162457,93.1770168 15.1311888,93.4656461 15.1223022,93.7553957 C15.1223022,94.1151079 15.1223022,94.5683453 15.1223022,95.1151079 C15.1223022,95.6618705 15.1223022,96.1151079 15.1223022,96.4748201 C15.1307506,96.7645999 15.1620225,97.0532633 15.2158273,97.3381295 C15.2401887,97.5040341 15.3127345,97.6591321 15.4244604,97.7841727 C15.5280974,97.8676962 15.6583432,97.9111114 15.7913669,97.9064748 C15.9020299,97.9106793 16.010921,97.8777588 16.1007194,97.8129496 C16.1919562,97.7256497 16.2546535,97.6127946 16.2805755,97.4892086 C16.3364833,97.2899293 16.36789,97.0845778 16.3741007,96.8776978 C16.3741007,96.618705 16.3741007,96.3021583 16.3741007,95.9136691 L18.3453237,95.9136691 L18.3453237,96.5179856 C18.3665029,97.0076111 18.2907104,97.4965951 18.1223022,97.9568345 C18.0004806,98.2835116 17.8032907,98.5768316 17.5467626,98.8129496 C17.3095783,99.0195729 17.025602,99.1652652 16.7194245,99.2374101 C16.4244462,99.2835082 16.125389,99.2979787 15.8273381,99.2805755 C15.3504262,99.2953942 14.8748645,99.2222309 14.4244604,99.0647482 C14.0689943,98.9266255 13.7700951,98.673321 13.5755396,98.3453237 C13.3467088,97.9421801 13.202293,97.496694 13.1510791,97.0359712 C13.0661725,96.3920879 13.0277039,95.7429299 13.0359712,95.0935252 C13.0263024,94.4337837 13.0720265,93.7743948 13.1726619,93.1223022 C13.2357426,92.6580702 13.3950133,92.2121124 13.6402878,91.8129496 C13.846081,91.4890586 14.1479055,91.2375382 14.5035971,91.0935252 C14.9266704,90.9357693 15.3759301,90.8600788 15.8273381,90.8705036 C16.2263061,90.8616396 16.6235879,90.9250097 17,91.057554 C17.5987364,91.2713579 18.0535865,91.7665793 18.2158273,92.381295 C18.3122422,92.7278141 18.3582778,93.086407 18.352518,93.4460432 L18.352518,93.9640288 L16.352518,93.9640288 L16.352518,93.5251799 C16.3748081,93.2025216 16.3282136,92.8788125 16.2158273,92.5755396 Z" id="Path" fill="#231F20" fill-rule="nonzero"></path>
                                <path d="M22.4460432,92.5755396 C22.3656053,92.4127013 22.1957275,92.3136059 22.0143885,92.323741 C21.8813648,92.3191044 21.751119,92.3625197 21.647482,92.4460432 C21.5400662,92.5730376 21.4702939,92.7275335 21.4460432,92.8920863 C21.3890733,93.176474 21.3577724,93.4654055 21.352518,93.7553957 C21.352518,94.1151079 21.352518,94.5683453 21.352518,95.1151079 C21.352518,95.6618705 21.352518,96.1151079 21.352518,96.4748201 C21.3573388,96.7648375 21.388644,97.0538081 21.4460432,97.3381295 C21.4687567,97.5031292 21.5387147,97.658036 21.647482,97.7841727 C21.751119,97.8676962 21.8813648,97.9111114 22.0143885,97.9064748 C22.114785,97.9165022 22.215732,97.8937891 22.3021583,97.8417266 C22.3956791,97.7551052 22.460873,97.6422696 22.4892086,97.5179856 C22.537886,97.3172125 22.5691767,97.1126192 22.5827338,96.9064748 C22.5827338,96.647482 22.5827338,96.3309353 22.5827338,95.942446 L24.5467626,95.942446 L24.5467626,96.5467626 C24.566075,97.035691 24.4928486,97.523867 24.3309353,97.9856115 C24.2090501,98.3140476 24.0090481,98.6078777 23.7482014,98.8417266 C23.512904,99.0511199 23.2281903,99.1971904 22.9208633,99.2661871 C22.6071188,99.3387715 22.2860588,99.3749813 21.9640288,99.3741007 C21.4894203,99.3896951 21.0160747,99.3164974 20.5683453,99.1582734 C20.2099222,99.0220198 19.9081755,98.7684511 19.7122302,98.4388489 C19.4860971,98.0350765 19.3441506,97.5896584 19.294964,97.1294964 C19.2100574,96.4856131 19.1715888,95.8364551 19.1798561,95.1870504 C19.1701873,94.5273089 19.2159114,93.86792 19.3165468,93.2158273 C19.3774224,92.7521357 19.5342309,92.3062115 19.7769784,91.9064748 C19.9862644,91.5856722 20.2870041,91.3350558 20.6402878,91.1870504 C21.063361,91.0292945 21.5126207,90.953604 21.9640288,90.9640288 C22.3629968,90.9551647 22.7602786,91.0185348 23.1366906,91.1510791 C23.43602,91.2579938 23.7050566,91.435706 23.9208633,91.6690647 C24.1265483,91.9007607 24.2766421,92.1763429 24.3597122,92.4748201 C24.452653,92.8220329 24.498626,93.1801386 24.4964029,93.5395683 L24.4964029,94.057554 L22.5755396,94.057554 L22.5755396,93.5251799 C22.5992586,93.2030603 22.5551432,92.8795474 22.4460432,92.5755396 L22.4460432,92.5755396 Z" id="Path" fill="#231F20" fill-rule="nonzero"></path>
                                <polygon id="Path" fill="#231F20" fill-rule="nonzero" points="30.3093525 91.0431655 30.3093525 92.8057554 27.7194245 92.8057554 27.7194245 94.2014388 30.1438849 94.2014388 30.1438849 95.8633094 27.7194245 95.8633094 27.7194245 97.4820144 30.4100719 97.4820144 30.4100719 99.2158273 25.6834532 99.2158273 25.6834532 91.0431655"></polygon>
                                <path d="M34.5323741,93.2014388 C34.5384068,92.9862629 34.4888496,92.7731671 34.3884892,92.5827338 C34.3076658,92.4159456 34.1347172,92.3138775 33.9496403,92.323741 C33.7609717,92.3083843 33.5780536,92.393018 33.4676259,92.5467626 C33.3662487,92.6921922 33.313376,92.8659169 33.3165468,93.0431655 C33.3037864,93.2794673 33.3928258,93.5099221 33.5611511,93.676259 C33.7462128,93.8405602 33.954741,93.976346 34.1798561,94.0791367 L34.9784173,94.4244604 C35.2629359,94.543688 35.5312483,94.6983906 35.7769784,94.8848921 C36.031521,95.0785118 36.2423476,95.323659 36.3956835,95.6043165 C36.5959109,95.9830526 36.6973621,96.4061786 36.6906475,96.8345324 C36.754677,97.5402007 36.4891515,98.2358776 35.971223,98.7194245 C35.378792,99.1518465 34.6525159,99.3608102 33.9208633,99.3093525 C33.5439599,99.3140961 33.1676551,99.2779129 32.7985612,99.2014388 C32.4993757,99.1435592 32.218254,99.0153283 31.9784173,98.8273381 C31.7479805,98.6365005 31.5718183,98.3883848 31.4676259,98.1079137 C31.3425751,97.7647925 31.2839784,97.4010043 31.294964,97.0359712 L31.294964,96.7553957 L33.2589928,96.7553957 L33.2589928,96.9496403 C33.2389532,97.2036345 33.3048274,97.4569969 33.4460432,97.6690647 C33.5683516,97.8059206 33.7445673,97.882193 33.9280576,97.8776978 C34.1177271,97.8875202 34.3002835,97.804296 34.4172662,97.6546763 C34.5064007,97.4921171 34.5463905,97.3071642 34.5323741,97.1223022 C34.5428996,96.8890501 34.4600514,96.6612176 34.3021583,96.4892086 C34.1284532,96.3225771 33.9261921,96.1885487 33.705036,96.0935252 C33.4748201,95.9784173 33.2158273,95.8705036 32.9352518,95.7553957 C32.6611882,95.6391415 32.4026163,95.4893147 32.1654676,95.3093525 C31.9188615,95.1152836 31.717542,94.869772 31.5755396,94.5899281 C31.4031554,94.2289664 31.3216517,93.8313272 31.3381295,93.4316547 C31.290422,92.7420259 31.518088,92.0616148 31.971223,91.5395683 C32.4958166,91.0642671 33.1937373,90.8272866 33.8992806,90.8848921 C34.5976785,90.8227378 35.2925757,91.0371484 35.8345324,91.4820144 C36.2748358,92.0176905 36.4867368,92.7050767 36.4244604,93.3956835 L34.5323741,93.3956835 L34.5323741,93.2014388 Z" id="Path" fill="#231F20" fill-rule="nonzero"></path>
                                <path d="M40.7697842,93.2014388 C40.7792851,92.9859282 40.7295198,92.7719372 40.6258993,92.5827338 C40.5461212,92.4184274 40.3767634,92.3168128 40.1942446,92.323741 C40.0053159,92.306906 39.8216995,92.3918628 39.7122302,92.5467626 C39.605954,92.6901361 39.5502845,92.8647359 39.5539568,93.0431655 C39.5439993,93.2804089 39.6355767,93.5106606 39.8057554,93.676259 C39.9883389,93.8437817 40.1974015,93.9799155 40.4244604,94.0791367 C40.6690647,94.1942446 40.9352518,94.3093525 41.2230216,94.4244604 C41.5059192,94.5469365 41.7738533,94.7014211 42.0215827,94.8848921 C42.2739711,95.0787898 42.4823891,95.3239875 42.6330935,95.6043165 C42.8137303,95.9782754 42.9001741,96.3907357 42.8848921,96.8057554 C42.9489216,97.5114237 42.6833961,98.2071006 42.1654676,98.6906475 C41.5702733,99.1230162 40.8417846,99.3318836 40.1079137,99.2805755 C39.7310103,99.2853191 39.3547055,99.249136 38.9856115,99.1726619 C38.6868419,99.1134869 38.4060099,98.9853881 38.1654676,98.7985612 C37.9350308,98.6077235 37.7588687,98.3596078 37.6546763,98.0791367 C37.5296255,97.7360155 37.4710288,97.3722274 37.4820144,97.0071942 L37.4820144,96.7266187 L39.4532374,96.7266187 L39.4532374,96.9208633 C39.4296671,97.1751562 39.495843,97.4296788 39.6402878,97.6402878 C39.7597722,97.7768294 39.9337208,97.8532613 40.1151079,97.8489209 C40.3052528,97.8612881 40.4889431,97.7775469 40.6043165,97.6258993 C40.7220381,97.4629381 40.7827267,97.2657001 40.7769784,97.0647482 C40.7889222,96.8299467 40.7029571,96.6007064 40.5395683,96.4316547 C40.3685085,96.2651256 40.168621,96.1310547 39.9496403,96.0359712 C39.7122302,95.9208633 39.4532374,95.8129496 39.1798561,95.6978417 C38.9026294,95.5834571 38.6414482,95.4335198 38.4028777,95.2517986 C38.1562716,95.0577296 37.9549521,94.812218 37.8129496,94.5323741 C37.6465196,94.1696533 37.5676611,93.7728966 37.5827338,93.3741007 C37.4885484,92.6726824 37.7274536,91.9675352 38.228588,91.4678124 C38.7297225,90.9680896 39.4355408,90.7311744 40.1366906,90.8273381 C40.8372524,90.691799 41.5595259,90.9112765 42.0662386,91.4136707 C42.5729513,91.9160648 42.7986028,92.6364333 42.6690647,93.3381295 L40.7697842,93.3381295 L40.7697842,93.2014388 Z" id="Path" fill="#231F20" fill-rule="nonzero"></path>
                                <path d="M43.8848921,93.1726619 C43.9524858,92.7095415 44.1114396,92.2644709 44.352518,91.8633094 C44.5600962,91.540992 44.8613617,91.2899374 45.2158273,91.1438849 C45.6335956,90.9747602 46.0818454,90.8939283 46.5323741,90.9064748 C46.9805718,90.8938806 47.426483,90.9747326 47.8417266,91.1438849 C48.1961922,91.2899374 48.4974577,91.540992 48.705036,91.8633094 C48.9517036,92.262446 49.113348,92.7081927 49.1798561,93.1726619 C49.3621028,94.4612138 49.3621028,95.769002 49.1798561,97.057554 C49.113348,97.5220232 48.9517036,97.9677699 48.705036,98.3669065 C48.5011104,98.6924338 48.1986909,98.9444501 47.8417266,99.0863309 C47.4229644,99.2408549 46.9785766,99.3141056 46.5323741,99.3021583 C46.0838356,99.3139692 45.6371172,99.2407366 45.2158273,99.0863309 C44.8588631,98.9444501 44.5564435,98.6924338 44.352518,98.3669065 C44.1114396,97.9657449 43.9524858,97.5206743 43.8848921,97.057554 C43.6929926,95.7696993 43.6929926,94.4605166 43.8848921,93.1726619 L43.8848921,93.1726619 Z M45.8633094,96.4748201 C45.8681302,96.7648375 45.8994353,97.0538081 45.9568345,97.3381295 C45.9781298,97.5049389 46.051082,97.6609055 46.1654676,97.7841727 C46.2677596,97.8701283 46.3989672,97.9138642 46.5323741,97.9064748 C46.6653978,97.9111114 46.7956436,97.8676962 46.8992806,97.7841727 C47.0080256,97.6571872 47.0801488,97.5029928 47.1079137,97.3381295 C47.1587294,97.0529914 47.1875911,96.7643745 47.1942446,96.4748201 C47.1942446,96.1151079 47.1942446,95.6618705 47.1942446,95.1151079 C47.1942446,94.5683453 47.1942446,94.1151079 47.1942446,93.7553957 C47.1872299,93.4658637 47.1583709,93.1772741 47.1079137,92.8920863 C47.078474,92.7277499 47.0065477,92.5739764 46.8992806,92.4460432 C46.7956436,92.3625197 46.6653978,92.3191044 46.5323741,92.323741 C46.3989672,92.3163517 46.2677596,92.3600876 46.1654676,92.4460432 C46.0526423,92.5703551 45.979932,92.7258049 45.9568345,92.8920863 C45.8998646,93.176474 45.8685637,93.4654055 45.8633094,93.7553957 C45.8633094,94.1151079 45.8633094,94.5683453 45.8633094,95.1151079 C45.8633094,95.6618705 45.8585132,96.1151079 45.8489209,96.4748201 L45.8633094,96.4748201 Z" id="Shape" fill="#231F20" fill-rule="nonzero"></path>
                                <path d="M53.5683453,91.0431655 C53.904333,91.0362866 54.2386359,91.0924105 54.5539568,91.2086331 C54.8106691,91.2992254 55.0406624,91.4525543 55.2230216,91.6546763 C55.3989179,91.8631465 55.5244619,92.1093112 55.5899281,92.3741007 C55.6697874,92.6548016 55.7085594,92.9455915 55.705036,93.2374101 C55.726742,93.6896607 55.6194558,94.1387655 55.3956835,94.5323741 C55.1696101,94.8790996 54.7999631,95.1061685 54.3884892,95.1510791 L54.3884892,95.1510791 C54.7926822,95.1466484 55.1716837,95.3469778 55.3956835,95.6834532 C55.5958978,96.0821065 55.6900496,96.5256113 55.6690647,96.971223 L55.6690647,98 C55.6690647,98.1151079 55.6690647,98.2230216 55.6690647,98.323741 C55.6690647,98.4244604 55.6690647,98.5179856 55.6690647,98.6043165 C55.6766946,98.6710994 55.693646,98.7364835 55.7194245,98.7985612 L55.8057554,98.9280576 C55.8454494,98.9776561 55.8942947,99.0191746 55.9496403,99.0503597 L55.9496403,99.1654676 L53.7913669,99.1654676 C53.7379821,99.0439547 53.7016665,98.9156398 53.6834532,98.7841727 C53.6834532,98.6402878 53.6402878,98.4964029 53.6258993,98.352518 C53.6115108,98.2086331 53.6258993,98.0719424 53.6258993,97.9352518 C53.6258993,97.7985612 53.6258993,97.6978417 53.6258993,97.6115108 L53.6258993,97.1223022 C53.6387719,96.9330724 53.6387719,96.7431866 53.6258993,96.5539568 C53.6105554,96.4278672 53.5714995,96.3058177 53.5107914,96.1942446 C53.4619642,96.1137825 53.3889364,96.0508275 53.3021583,96.0143885 C53.2010304,95.9767609 53.0934236,95.9596417 52.9856115,95.9640288 L52.4532374,95.9640288 L52.4532374,99.2230216 L50.3597122,99.2230216 L50.3597122,91.0431655 L53.5683453,91.0431655 Z M52.8489209,94.4892086 C53.0951305,94.5106398 53.3364593,94.4114268 53.4964029,94.2230216 C53.6452346,94.0136741 53.7187741,93.7600899 53.705036,93.5035971 C53.7256897,93.2474538 53.6542598,92.9923474 53.5035971,92.7841727 C53.3217285,92.6248212 53.0825718,92.5468354 52.8417266,92.5683453 L52.4460432,92.5683453 L52.4460432,94.4820144 L52.8489209,94.4892086 Z" id="Shape" fill="#231F20" fill-rule="nonzero"></path>
                                <polygon id="Path" fill="#231F20" fill-rule="nonzero" points="58.9928058 91.0431655 58.9928058 99.1870504 56.942446 99.1870504 56.942446 91.0431655"></polygon>
                                <polygon id="Path" fill="#231F20" fill-rule="nonzero" points="64.8417266 91.0431655 64.8417266 92.8057554 62.2517986 92.8057554 62.2517986 94.2014388 64.676259 94.2014388 64.676259 95.8633094 62.2517986 95.8633094 62.2517986 97.4820144 64.942446 97.4820144 64.942446 99.2158273 60.2158273 99.2158273 60.2158273 91.0431655"></polygon>
                                <path d="M69.0647482,93.2014388 C69.0707809,92.9862629 69.0212237,92.7731671 68.9208633,92.5827338 C68.8400399,92.4159456 68.6670913,92.3138775 68.4820144,92.323741 C68.2933458,92.3083843 68.1104277,92.393018 68,92.5467626 C67.8986228,92.6921922 67.8457501,92.8659169 67.8489209,93.0431655 C67.8361605,93.2794673 67.9251999,93.5099221 68.0935252,93.676259 C68.2785869,93.8405602 68.4871151,93.976346 68.7122302,94.0791367 L69.5107914,94.4244604 C69.79531,94.543688 70.0636224,94.6983906 70.3093525,94.8848921 C70.5638951,95.0785118 70.7747217,95.323659 70.9280576,95.6043165 C71.1062154,95.978901 71.1901834,96.391332 71.1726619,96.8057554 C71.2366914,97.5114237 70.9711659,98.2071006 70.4532374,98.6906475 C69.8583178,99.1235793 69.1296197,99.3325068 68.3956835,99.2805755 C68.0211749,99.2849684 67.6472921,99.2487861 67.2805755,99.1726619 C66.9808731,99.1164069 66.6993805,98.9880068 66.4604317,98.7985612 C66.2299948,98.6077235 66.0538327,98.3596078 65.9496403,98.0791367 C65.8221399,97.7364916 65.7610992,97.3726893 65.7697842,97.0071942 L65.7697842,96.7266187 L67.7410072,96.7266187 L67.7410072,96.9208633 C67.7209676,97.1748576 67.7868418,97.4282199 67.9280576,97.6402878 C68.050366,97.7771436 68.2265817,97.853416 68.4100719,97.8489209 C68.5997414,97.8587433 68.7822979,97.775519 68.8992806,97.6258993 C69.0007623,97.4769664 69.0581195,97.3024011 69.0647482,97.1223022 C69.0752737,96.8890501 68.9924255,96.6612176 68.8345324,96.4892086 C68.6608273,96.3225771 68.4585662,96.1885487 68.2374101,96.0935252 C68,95.9784173 67.7482014,95.8705036 67.4676259,95.7553957 C67.1935623,95.6391415 66.9349904,95.4893147 66.6978417,95.3093525 C66.4512356,95.1152836 66.2499161,94.869772 66.1079137,94.5899281 C65.9355295,94.2289664 65.8540258,93.8313272 65.8705036,93.4316547 C65.8227961,92.7420259 66.0504621,92.0616148 66.5035971,91.5395683 C67.0281907,91.0642671 67.7261114,90.8272866 68.4316547,90.8848921 C69.1300526,90.8227378 69.8249498,91.0371484 70.3669065,91.4820144 C70.8072099,92.0176905 71.0191109,92.7050767 70.9568345,93.3956835 L69.0647482,93.3956835 L69.0647482,93.2014388 Z" id="Path" fill="#231F20" fill-rule="nonzero"></path>
                                <path d="M75.9136691,94.323741 C76.0157682,94.0862037 76.1567941,93.8673698 76.3309353,93.676259 C76.5078061,93.494294 76.7178032,93.3477844 76.9496403,93.2446043 C77.189369,93.1372234 77.4495691,93.0832196 77.7122302,93.0863309 C77.9604611,93.0882589 78.2055341,93.142175 78.4316547,93.2446043 C78.6634917,93.3477844 78.8734889,93.494294 79.0503597,93.676259 C79.2292426,93.8636783 79.3708474,94.0834099 79.4676259,94.323741 C79.6680507,94.8322838 79.6680507,95.397932 79.4676259,95.9064748 C79.3726391,96.1477289 79.2308234,96.3677878 79.0503597,96.5539568 C78.8734889,96.7359218 78.6634917,96.8824315 78.4316547,96.9856115 C78.2055341,97.0880408 77.9604611,97.1419569 77.7122302,97.1438849 C77.4495691,97.1469962 77.189369,97.0929924 76.9496403,96.9856115 C76.7178032,96.8824315 76.5078061,96.7359218 76.3309353,96.5539568 C76.1552287,96.3640549 76.0140206,96.1449389 75.9136691,95.9064748 C75.7132443,95.397932 75.7132443,94.8322838 75.9136691,94.323741 L75.9136691,94.323741 Z" id="Path" fill="#231F20" fill-rule="nonzero"></path>
                                <path d="M84.381295,93.1726619 C84.4511025,92.7090241 84.6125129,92.2639227 84.8561151,91.8633094 C85.0636933,91.540992 85.3649588,91.2899374 85.7194245,91.1438849 C86.1371928,90.9747602 86.5854425,90.8939283 87.0359712,90.9064748 C87.4841689,90.8938806 87.9300801,90.9747326 88.3453237,91.1438849 C88.6997894,91.2899374 89.0010549,91.540992 89.2086331,91.8633094 C89.4522353,92.2639227 89.6136457,92.7090241 89.6834532,93.1726619 C89.8656999,94.4612138 89.8656999,95.769002 89.6834532,97.057554 C89.6136457,97.5211917 89.4522353,97.9662932 89.2086331,98.3669065 C89.0047075,98.6924338 88.702288,98.9444501 88.3453237,99.0863309 C87.9265615,99.2408549 87.4821737,99.3141056 87.0359712,99.3021583 C86.5874327,99.3139692 86.1407144,99.2407366 85.7194245,99.0863309 C85.3624602,98.9444501 85.0600407,98.6924338 84.8561151,98.3669065 C84.6125129,97.9662932 84.4511025,97.5211917 84.381295,97.057554 C84.1990483,95.769002 84.1990483,94.4612138 84.381295,93.1726619 L84.381295,93.1726619 Z M86.3669065,96.4748201 C86.3717273,96.7648375 86.4030324,97.0538081 86.4604317,97.3381295 C86.481727,97.5049389 86.5546791,97.6609055 86.6690647,97.7841727 C86.7713567,97.8701283 86.9025643,97.9138642 87.0359712,97.9064748 C87.1689949,97.9111114 87.2992407,97.8676962 87.4028777,97.7841727 C87.511645,97.658036 87.581603,97.5031292 87.6043165,97.3381295 C87.6617158,97.0538081 87.6930209,96.7648375 87.6978417,96.4748201 C87.6978417,96.1151079 87.6978417,95.6618705 87.6978417,95.1151079 C87.6978417,94.5683453 87.6978417,94.1151079 87.6978417,93.7553957 C87.6925873,93.4654055 87.6612864,93.176474 87.6043165,92.8920863 C87.5800658,92.7275335 87.5102935,92.5730376 87.4028777,92.4460432 C87.2992407,92.3625197 87.1689949,92.3191044 87.0359712,92.323741 C86.9025643,92.3163517 86.7713567,92.3600876 86.6690647,92.4460432 C86.5562395,92.5703551 86.4835291,92.7258049 86.4604317,92.8920863 C86.4034618,93.176474 86.3721609,93.4654055 86.3669065,93.7553957 C86.3669065,94.1151079 86.3669065,94.5683453 86.3669065,95.1151079 C86.3669065,95.6618705 86.3669065,96.1151079 86.3669065,96.4748201 L86.3669065,96.4748201 Z" id="Shape" fill="#231F20" fill-rule="nonzero"></path>
                                <path d="M92.8561151,96.9136691 C92.8261732,97.1874604 92.8814454,97.4638217 93.0143885,97.705036 C93.12529,97.8398439 93.2932468,97.9144914 93.4676259,97.9064748 C93.6399609,97.9144988 93.8057422,97.8396299 93.9136691,97.705036 C94.0500016,97.4649571 94.1078566,97.1882589 94.0791367,96.9136691 L94.0791367,91.0431655 L96.1151079,91.0431655 L96.1151079,96.4028777 C96.127224,96.88831 96.0690681,97.3729429 95.942446,97.8417266 C95.8453243,98.1817667 95.6704547,98.4945616 95.4316547,98.7553957 C95.2032245,98.9832027 94.9173015,99.1448114 94.6043165,99.2230216 C94.2315348,99.308271 93.8500102,99.3493211 93.4676259,99.3453237 C93.0852801,99.3485337 92.7038469,99.3074934 92.3309353,99.2230216 C92.0179503,99.1448114 91.7320273,98.9832027 91.5035971,98.7553957 C91.2623503,98.4963369 91.0871337,98.1829212 90.9928058,97.8417266 C90.8661837,97.3729429 90.8080278,96.88831 90.8201439,96.4028777 L90.8201439,91.0647482 L92.8561151,91.0647482 L92.8561151,96.9136691 Z" id="Path" fill="#231F20" fill-rule="nonzero"></path>
                                <polygon id="Path" fill="#231F20" fill-rule="nonzero" points="96.8561151 92.8489209 96.8561151 91.0431655 101.935252 91.0431655 101.935252 92.8489209 100.402878 92.8489209 100.402878 99.1870504 98.3669065 99.1870504 98.3669065 92.8489209"></polygon>
                                <path d="M105.697842,91.0431655 C106.181559,91.0170262 106.662188,91.1346801 107.079137,91.381295 C107.399381,91.6067567 107.648896,91.9186505 107.798561,92.2805755 C107.966138,92.6959825 108.065734,93.1356625 108.093525,93.5827338 C108.129496,94.0719424 108.151079,94.5827338 108.151079,95.1151079 C108.151079,95.647482 108.151079,96.1582734 108.093525,96.647482 C108.065734,97.0945533 107.966138,97.5342333 107.798561,97.9496403 C107.648896,98.3115653 107.399381,98.6234591 107.079137,98.8489209 C106.662188,99.0955358 106.181559,99.2131897 105.697842,99.1870504 L102.748201,99.1870504 L102.748201,91.0431655 L105.697842,91.0431655 Z M105.18705,97.6546763 C105.347441,97.6615202 105.507302,97.6320072 105.654676,97.5683453 C105.789643,97.4942068 105.886502,97.3659337 105.920863,97.2158273 C105.997633,96.9637978 106.038798,96.702275 106.043165,96.4388489 C106.043165,96.1007194 106.043165,95.6618705 106.043165,95.1151079 C106.043165,94.5683453 106.043165,94.1294964 106.043165,93.7913669 C106.039573,93.5302307 105.998382,93.2709736 105.920863,93.0215827 C105.88585,92.8699565 105.789444,92.7396787 105.654676,92.6618705 C105.507302,92.5982086 105.347441,92.5686957 105.18705,92.5755396 L104.776978,92.5755396 L104.776978,97.6546763 L105.18705,97.6546763 Z" id="Shape" fill="#231F20" fill-rule="nonzero"></path>
                                <path d="M109.28777,93.1726619 C109.355364,92.7095415 109.514317,92.2644709 109.755396,91.8633094 C109.967255,91.5419921 110.27043,91.2914338 110.625899,91.1438849 C111.040904,90.9739135 111.48699,90.8930298 111.935252,90.9064748 C112.38578,90.8939283 112.83403,90.9747602 113.251799,91.1438849 C113.603942,91.293762 113.904186,91.5439658 114.115108,91.8633094 C114.356186,92.2644709 114.51514,92.7095415 114.582734,93.1726619 C114.774527,94.4605244 114.774527,95.7696914 114.582734,97.057554 C114.51514,97.5206743 114.356186,97.9657449 114.115108,98.3669065 C113.90788,98.6895337 113.606506,98.9406792 113.251799,99.0863309 C112.830509,99.2407366 112.38379,99.3139692 111.935252,99.3021583 C111.489013,99.3146383 111.044525,99.241371 110.625899,99.0863309 C110.268051,98.9427596 109.963796,98.6913095 109.755396,98.3669065 C109.514317,97.9657449 109.355364,97.5206743 109.28777,97.057554 C109.09587,95.7696993 109.09587,94.4605166 109.28777,93.1726619 Z M111.266187,96.4748201 C111.274636,96.7645999 111.305907,97.0532633 111.359712,97.3381295 C111.384074,97.5040341 111.456619,97.6591321 111.568345,97.7841727 C111.782788,97.940157 112.073327,97.940157 112.28777,97.7841727 C112.399496,97.6591321 112.472042,97.5040341 112.496403,97.3381295 C112.553802,97.0538081 112.585107,96.7648375 112.589928,96.4748201 C112.589928,96.1151079 112.589928,95.6618705 112.589928,95.1151079 C112.589928,94.5683453 112.589928,94.1151079 112.589928,93.7553957 C112.584674,93.4654055 112.553373,93.176474 112.496403,92.8920863 C112.470084,92.7267758 112.397785,92.5722054 112.28777,92.4460432 C112.073327,92.2900589 111.782788,92.2900589 111.568345,92.4460432 C111.45833,92.5722054 111.386031,92.7267758 111.359712,92.8920863 C111.306342,93.1770168 111.275074,93.4656461 111.266187,93.7553957 C111.266187,94.1151079 111.266187,94.5683453 111.266187,95.1151079 C111.266187,95.6618705 111.266187,96.1151079 111.266187,96.4748201 Z" id="Shape" fill="#231F20" fill-rule="nonzero"></path>
                                <path d="M115.719424,93.1726619 C115.789232,92.7090241 115.950642,92.2639227 116.194245,91.8633094 C116.401823,91.540992 116.703088,91.2899374 117.057554,91.1438849 C117.472798,90.9747326 117.918709,90.8938806 118.366906,90.9064748 C118.817435,90.8939283 119.265685,90.9747602 119.683453,91.1438849 C120.037919,91.2899374 120.339184,91.540992 120.546763,91.8633094 C120.787841,92.2644709 120.946795,92.7095415 121.014388,93.1726619 C121.206182,94.4605244 121.206182,95.7696914 121.014388,97.057554 C120.946795,97.5206743 120.787841,97.9657449 120.546763,98.3669065 C120.342837,98.6924338 120.040418,98.9444501 119.683453,99.0863309 C119.262163,99.2407366 118.815445,99.3139692 118.366906,99.3021583 C117.920704,99.3141056 117.476316,99.2408549 117.057554,99.0863309 C116.70059,98.9444501 116.39817,98.6924338 116.194245,98.3669065 C115.950642,97.9662932 115.789232,97.5211917 115.719424,97.057554 C115.537178,95.769002 115.537178,94.4612138 115.719424,93.1726619 L115.719424,93.1726619 Z M117.705036,96.4748201 C117.709857,96.7648375 117.741162,97.0538081 117.798561,97.3381295 C117.821275,97.5031292 117.891233,97.658036 118,97.7841727 C118.103637,97.8676962 118.233883,97.9111114 118.366906,97.9064748 C118.500313,97.9138642 118.631521,97.8701283 118.733813,97.7841727 C118.848199,97.6609055 118.921151,97.5049389 118.942446,97.3381295 C118.999845,97.0538081 119.03115,96.7648375 119.035971,96.4748201 C119.035971,96.1151079 119.035971,95.6618705 119.035971,95.1151079 C119.035971,94.5683453 119.035971,94.1151079 119.035971,93.7553957 C119.030717,93.4654055 118.999416,93.176474 118.942446,92.8920863 C118.919349,92.7258049 118.846638,92.5703551 118.733813,92.4460432 C118.631521,92.3600876 118.500313,92.3163517 118.366906,92.323741 C118.233883,92.3191044 118.103637,92.3625197 118,92.4460432 C117.892584,92.5730376 117.822812,92.7275335 117.798561,92.8920863 C117.741591,93.176474 117.71029,93.4654055 117.705036,93.7553957 C117.705036,94.1151079 117.705036,94.5683453 117.705036,95.1151079 C117.705036,95.6618705 117.705036,96.1151079 117.705036,96.4748201 L117.705036,96.4748201 Z" id="Shape" fill="#231F20" fill-rule="nonzero"></path>
                                <path d="M125.417266,91.0431655 C125.755639,91.0357256 126.092403,91.0918529 126.410072,91.2086331 C126.665617,91.2974529 126.893695,91.4511572 127.071942,91.6546763 C127.250207,91.8625932 127.378212,92.1087583 127.446043,92.3741007 C127.525903,92.6548016 127.564675,92.9455915 127.561151,93.2374101 C127.5826,93.6996812 127.47286,94.158592 127.244604,94.5611511 C127.016252,94.908952 126.643966,95.1360201 126.230216,95.1798561 L126.230216,95.1798561 C126.633772,95.1780352 127.011612,95.3777507 127.23741,95.7122302 C127.435141,96.1115443 127.526809,96.5550161 127.503597,97 L127.503597,98.028777 C127.503597,98.1438849 127.503597,98.2517986 127.503597,98.352518 C127.503597,98.4532374 127.503597,98.5467626 127.503597,98.6330935 C127.513523,98.7002323 127.5329,98.7656288 127.561151,98.8273381 L127.647482,98.9568345 C127.685467,99.0080617 127.734689,99.0499005 127.791367,99.0791367 L127.791367,99.1942446 L125.633094,99.1942446 C125.57996,99.0720796 125.541327,98.9441084 125.517986,98.8129496 C125.517986,98.6690647 125.47482,98.5251799 125.467626,98.381295 C125.460643,98.2422939 125.460643,98.1030299 125.467626,97.9640288 C125.467626,97.8345324 125.467626,97.7266187 125.467626,97.6402878 L125.467626,97.1223022 C125.480982,96.9330891 125.480982,96.7431699 125.467626,96.5539568 C125.45559,96.4271663 125.416326,96.3044679 125.352518,96.1942446 C125.308062,96.1129037 125.236917,96.0493811 125.151079,96.0143885 C125.049809,95.977306 124.942311,95.9602041 124.834532,95.9640288 L124.302158,95.9640288 L124.302158,99.2230216 L122.266187,99.2230216 L122.266187,91.0431655 L125.417266,91.0431655 Z M124.697842,94.4892086 C124.943865,94.5094286 125.184661,94.4104347 125.345324,94.2230216 C125.494156,94.0136741 125.567695,93.7600899 125.553957,93.5035971 C125.57588,93.2462294 125.501539,92.9898804 125.345324,92.7841727 C125.164772,92.6225209 124.92459,92.5442008 124.683453,92.5683453 L124.294964,92.5683453 L124.294964,94.4820144 L124.697842,94.4892086 Z" id="Shape" fill="#231F20" fill-rule="nonzero"></path>
                                <path d="M131.913669,93.2014388 C131.921918,92.9868942 131.874847,92.7738339 131.776978,92.5827338 C131.693333,92.4185715 131.522272,92.3176173 131.338129,92.323741 C131.149201,92.306906 130.965584,92.3918628 130.856115,92.5467626 C130.752628,92.6915494 130.697262,92.8651982 130.697842,93.0431655 C130.687884,93.2804089 130.779462,93.5106606 130.94964,93.676259 C131.133459,93.8421832 131.342249,93.9781395 131.568345,94.0791367 C131.81295,94.1942446 132.079137,94.3093525 132.366906,94.4244604 C132.649804,94.5469365 132.917738,94.7014211 133.165468,94.8848921 C133.418288,95.0803336 133.628778,95.3250893 133.784173,95.6043165 C133.958853,95.9800543 134.042647,96.3916303 134.028777,96.8057554 C134.092807,97.5114237 133.827281,98.2071006 133.309353,98.6906475 C132.714158,99.1230162 131.985669,99.3318836 131.251799,99.2805755 C130.874895,99.2853191 130.49859,99.249136 130.129496,99.1726619 C129.830727,99.1134869 129.549895,98.9853881 129.309353,98.7985612 C129.081083,98.6057212 128.905358,98.3582218 128.798561,98.0791367 C128.67351,97.7360155 128.614914,97.3722274 128.625899,97.0071942 L128.625899,96.7266187 L130.597122,96.7266187 L130.597122,96.9208633 C130.573552,97.1751562 130.639728,97.4296788 130.784173,97.6402878 C130.905888,97.7779637 131.082505,97.85441 131.266187,97.8489209 C131.453849,97.8588413 131.634282,97.7753571 131.748201,97.6258993 C131.865923,97.4629381 131.926612,97.2657001 131.920863,97.0647482 C131.932807,96.8299467 131.846842,96.6007064 131.683453,96.4316547 C131.512393,96.2651256 131.312506,96.1310547 131.093525,96.0359712 C130.856115,95.9208633 130.597122,95.8129496 130.323741,95.6978417 C130.047963,95.5850484 129.788955,95.4349693 129.553957,95.2517986 C129.304741,95.0585003 129.100919,94.812931 128.956835,94.5323741 C128.790404,94.1696533 128.711546,93.7728966 128.726619,93.3741007 C128.631918,92.6712565 128.871707,91.9646081 129.374595,91.4645457 C129.877482,90.9644833 130.58547,90.7286788 131.28777,90.8273381 C131.987232,90.694563 132.707176,90.9152769 133.212039,91.417263 C133.716901,91.919249 133.941726,92.6379201 133.81295,93.3381295 L131.906475,93.3381295 L131.913669,93.2014388 Z" id="Path" fill="#231F20" fill-rule="nonzero"></path>
                            </g>
                        </g>
                    </g>
                </g>
            </g>
        </g>
    </g>
</svg>