<?xml version="1.0" encoding="UTF-8"?>
<svg width="34px" height="20px" viewBox="0 0 34 20" version="1.1" xmlns="http://www.w3.org/2000/svg" xmlns:xlink="http://www.w3.org/1999/xlink">
    <title>C67E9528-B833-4F30-A593-7A97D9F2B09A@2x</title>
    <g id="5.-Checkout" stroke="none" stroke-width="1" fill="none" fill-rule="evenodd">
        <g id="Checkout---All-Payments-Combined" transform="translate(-1138.000000, -474.000000)" fill-rule="nonzero">
            <g id="Payment-Section" transform="translate(1054.000000, 416.000000)">
                <g id="Payment-Method">
                    <g id="Cards" transform="translate(0.000000, 43.000000)">
                        <g id="Credit-Cards">
                            <g id="Visa-+-Masctercard-ison" transform="translate(33.000000, 12.000000)">
                                <g id="Group" transform="translate(0.000000, 3.000000)">
                                    <g id="Mastercard_Icon_checkout" transform="translate(51.538462, 0.000000)">
                                        <g id="mc_symbol">
                                            <rect id="Rectangle" fill="#FF5F00" x="11.3342466" y="2.23013699" width="9.49589041" height="15.509589"></rect>
                                            <path d="M12.3123288,9.98630137 C12.3099445,6.96027437 13.6990709,4.10119964 16.0794521,2.23287671 C12.035559,-0.945191293 6.22836639,-0.482278205 2.73901312,3.2962931 C-0.750340145,7.0748644 -0.750340145,12.9004781 2.73901312,16.6790494 C6.22836639,20.4576207 12.035559,20.9205338 16.0794521,17.7424658 C13.6983134,15.8735495 12.3091021,13.0132898 12.3123288,9.98630137 Z" id="Path" fill="#EB001B"></path>
                                            <path d="M31.1368493,16.7150685 L31.1368493,15.8864971 L31.303516,15.8864971 L31.303516,15.7150685 L30.9068493,15.7150685 L30.9068493,15.8864971 L31.063516,15.8864971 L31.063516,16.7150685 L31.1368493,16.7150685 Z M31.9068493,16.7150685 L31.9068493,15.7150685 L31.7868493,15.7150685 L31.6468493,16.4293542 L31.5068493,15.7150685 L31.3868493,15.7150685 L31.3868493,16.7150685 L31.473516,16.7150685 L31.473516,15.9579256 L31.603516,16.6079256 L31.693516,16.6079256 L31.823516,15.9579256 L31.823516,16.7150685 L31.9068493,16.7150685 Z" id="Shape" fill="#F79E1B"></path>
                                            <path d="M32.0383562,9.98630137 C32.0383562,13.76257 29.8820331,17.2073015 26.4854124,18.8575052 C23.0887917,20.5077089 19.0481068,20.0736698 16.0794521,17.739726 C18.4587946,15.8698169 19.8480256,13.0111223 19.8480256,9.98493151 C19.8480256,6.95874068 18.4587946,4.10004608 16.0794521,2.23013699 C19.0481068,-0.103806801 23.0887917,-0.537845869 26.4854124,1.11235784 C29.8820331,2.76256155 32.0383562,6.20729305 32.0383562,9.98356164 L32.0383562,9.98630137 Z" id="Path" fill="#F79E1B"></path>
                                        </g>
                                    </g>
                                </g>
                            </g>
                        </g>
                    </g>
                </g>
            </g>
        </g>
    </g>
</svg>