<?xml version="1.0" encoding="UTF-8"?>
<svg xmlns="http://www.w3.org/2000/svg" width="155" height="74" viewBox="0 0 155 74">
    <g fill="none" fill-rule="evenodd">
        <g fill="#272560" fill-rule="nonzero">
            <path d="M75.937 39.979a2.928 2.928 0 0 1-2.252-.935 3.31 3.31 0 0 1-.849-2.323 5.107 5.107 0 0 1 .611-2.471 9.537 9.537 0 0 1 1.305-1.878l12.61-14.467H76.372c-1.065 0-1.827-.37-2.245-1.107a4.773 4.773 0 0 1-.587-2.424c-.03-.816.202-1.62.66-2.29a2.283 2.283 0 0 1 1.966-.96h19.42a2.982 2.982 0 0 1 2.216.843c.551.558.83 1.353.83 2.36a4.999 4.999 0 0 1-.47 2.27 7.71 7.71 0 0 1-1.187 1.695L83.84 33.196h12.444a2.337 2.337 0 0 1 1.918.927c.488.672.734 1.494.697 2.328.036.869-.17 1.73-.592 2.487-.426.691-1.18 1.043-2.24 1.043l-20.13-.002zM106.444 40.36c-3.456 0-4.176-1.801-4.176-3.31V15.012c0-1.153.341-2.085 1.02-2.77.679-.687 1.76-1.037 3.216-1.037 1.227 0 2.198.284 2.89.845.691.562 1.075 1.468 1.075 2.633v22.249c0 1.21-.376 2.1-1.117 2.648-.741.549-1.694.78-2.908.78zm0-31.519c-1.347 0-2.451-.4-3.286-1.19-.836-.788-1.272-1.877-1.272-3.215a4.27 4.27 0 0 1 1.266-3.157c.828-.823 1.937-1.245 3.292-1.245a5.089 5.089 0 0 1 3.093 1.06c.971.726 1.465 1.854 1.465 3.353 0 1.338-.429 2.42-1.272 3.218-.843.797-1.947 1.184-3.286 1.184v-.008zM119.48 48.804c-3.232 0-3.916-1.83-3.916-3.366V14.266a3.574 3.574 0 0 1 1.024-2.612c.676-.686 1.759-1.036 3.215-1.036.906-.009 1.801.202 2.61.615.86.448 1.306 1.324 1.306 2.582.174-.203.361-.411.561-.625a9.793 9.793 0 0 1 1.827-1.478 9.812 9.812 0 0 1 5.396-1.525 11.585 11.585 0 0 1 5.283 1.16 10.82 10.82 0 0 1 3.835 3.22 14.25 14.25 0 0 1 2.27 4.858c.509 1.98.758 4.018.742 6.063a21.3 21.3 0 0 1-.851 6.156 14.557 14.557 0 0 1-2.49 4.884 11.512 11.512 0 0 1-4.036 3.218 12.398 12.398 0 0 1-5.44 1.157 11.001 11.001 0 0 1-3.706-.53 10.173 10.173 0 0 1-2.43-1.22 6.746 6.746 0 0 1-1.123-.972v7.098c0 1.234-.331 2.145-.987 2.707-.655.561-1.662.818-3.09.818zm9.935-31.556a5.126 5.126 0 0 0-2.556.612 5.607 5.607 0 0 0-1.853 1.73 8.271 8.271 0 0 0-1.162 2.648c-.27 1.1-.402 2.229-.394 3.361 0 2.58.522 4.649 1.566 6.15 1.044 1.502 2.462 2.204 4.409 2.204 1.947 0 3.365-.752 4.349-2.301.984-1.55 1.509-3.613 1.509-6.053a13.659 13.659 0 0 0-.408-3.35 8.66 8.66 0 0 0-1.138-2.649 5.362 5.362 0 0 0-1.827-1.724 5.01 5.01 0 0 0-2.495-.628z"/>
        </g>
        <g fill-rule="nonzero" transform="translate(10.246)">
            <path fill="#F15B41" d="M47.482 18.35L36.756 28.17H10.192a10.046 10.046 0 0 0-6.729 2.585l13.398-12.271.206-.185L33.853 2.914A10.056 10.056 0 0 1 43.82.762c3.462 1.147 6.06 4.086 6.815 7.711.755 3.625-.447 7.385-3.154 9.864v.013z"/>
            <ellipse cx="10.192" cy="10.64" fill="#F99D1D" rx="10.192" ry="10.375"/>
            <path fill="#272560" d="M10.192 28.171a10.046 10.046 0 0 0-6.729 2.585l-.086.08c-4.184 3.83-4.526 10.39-.762 14.65a10.066 10.066 0 0 0 14.392.775l19.752-18.087-26.567-.003z"/>
            <path fill="#00B6BD" d="M36.743 28.179L16.989 46.267a10.047 10.047 0 0 1-6.815 2.648h30.477c5.878-.095 10.029-4.597 10.029-10.373 0-5.776-4.464-10.283-10.03-10.374l-3.907.011z"/>
        </g>
        <g fill="#272560">
            <path d="M1.143 69.882C.446 69.229.07 68.327.016 67.176L0 66.458l.016-.717c.055-1.141.436-2.04 1.143-2.698.708-.657 1.693-.986 2.955-.986 1.252 0 2.231.329 2.939.986.707.658 1.088 1.557 1.142 2.698.011.13.017.37.017.717 0 .348-.006.587-.017.718-.054 1.151-.43 2.053-1.126 2.706-.697.652-1.682.978-2.955.978-1.284 0-2.275-.326-2.971-.978zm4.302-1.207c.31-.358.476-.885.497-1.581.011-.109.017-.32.017-.636 0-.315-.006-.527-.017-.635-.021-.696-.19-1.226-.506-1.59-.315-.364-.756-.546-1.322-.546-.577 0-1.023.182-1.339.546-.315.364-.484.894-.506 1.59l-.016.635.016.636c.022.696.19 1.223.506 1.581.316.359.762.538 1.339.538s1.02-.18 1.33-.538zm6.109 1.614l-2.335-7.564a.494.494 0 0 1-.016-.146.36.36 0 0 1 .098-.253.32.32 0 0 1 .245-.106h1.24c.11 0 .205.033.286.098a.428.428 0 0 1 .155.212l1.584 5.363 1.681-5.314a.567.567 0 0 1 .172-.253.47.47 0 0 1 .318-.106h.833a.461.461 0 0 1 .473.359l1.698 5.314 1.584-5.363a.443.443 0 0 1 .147-.212.436.436 0 0 1 .293-.098h1.225c.098 0 .182.035.253.106.07.07.106.155.106.253l-.033.146-2.334 7.564a.667.667 0 0 1-.188.302.494.494 0 0 1-.335.106h-1.077c-.283 0-.463-.136-.539-.408l-1.681-5.118-1.698 5.118c-.087.272-.272.408-.555.408h-1.061c-.273 0-.452-.136-.54-.408zm11.978.293a.377.377 0 0 1-.114-.277v-7.694a.37.37 0 0 1 .114-.285.393.393 0 0 1 .278-.106h1.355c.12 0 .215.035.285.106.071.07.106.166.106.285v.669c.664-.815 1.573-1.223 2.727-1.223 1.001 0 1.796.326 2.383.978.588.652.882 1.549.882 2.69v4.58a.392.392 0 0 1-.106.277.371.371 0 0 1-.286.115h-1.47a.378.378 0 0 1-.277-.115.377.377 0 0 1-.114-.277v-4.482c0-.63-.155-1.122-.465-1.476-.31-.353-.754-.53-1.33-.53-.556 0-1.002.18-1.34.538-.337.36-.506.848-.506 1.468v4.482a.392.392 0 0 1-.106.277.371.371 0 0 1-.285.115H23.81a.378.378 0 0 1-.278-.115zM38.746 69.99c-.337-.483-.506-1.15-.506-1.997v-4.809h-1.273a.353.353 0 0 1-.262-.097.352.352 0 0 1-.098-.261v-.228c0-.109.033-.196.098-.261a.353.353 0 0 1 .262-.098h1.273V59.5c0-.108.033-.195.098-.26a.353.353 0 0 1 .261-.098h.278c.108 0 .196.032.26.098a.352.352 0 0 1 .099.26v2.739h2.024c.109 0 .196.033.261.098a.352.352 0 0 1 .098.26v.229a.352.352 0 0 1-.098.26.353.353 0 0 1-.26.098h-2.025v4.744c0 .609.1 1.068.302 1.377.201.31.536.465 1.004.465h.881c.11 0 .196.033.262.098a.352.352 0 0 1 .098.26v.229a.352.352 0 0 1-.098.26.353.353 0 0 1-.262.099h-.963c-.805 0-1.377-.242-1.714-.726zm4.832.628a.352.352 0 0 1-.098-.261V59.5c0-.108.033-.195.098-.26a.353.353 0 0 1 .262-.098h.277c.109 0 .196.032.261.098a.352.352 0 0 1 .098.26v3.864c.327-.424.7-.745 1.119-.962.419-.217.96-.326 1.624-.326 1.067 0 1.888.34 2.465 1.019.577.679.865 1.557.865 2.632v4.63a.352.352 0 0 1-.098.26.353.353 0 0 1-.26.099h-.278a.353.353 0 0 1-.262-.098.352.352 0 0 1-.098-.261v-4.548c0-.88-.214-1.565-.644-2.054-.43-.489-1.048-.734-1.853-.734-.784 0-1.41.248-1.878.742-.468.495-.702 1.177-.702 2.046v4.548a.352.352 0 0 1-.098.26.353.353 0 0 1-.26.099h-.278a.353.353 0 0 1-.262-.098zm10.187-.758c-.63-.68-.99-1.59-1.077-2.73l-.016-.653.016-.652c.087-1.13.443-2.037 1.07-2.722.625-.685 1.46-1.027 2.505-1.027 1.132 0 2.016.375 2.653 1.125s.955 1.777.955 3.08v.245a.338.338 0 0 1-.106.261.382.382 0 0 1-.27.098h-5.811v.163a3.6 3.6 0 0 0 .35 1.426c.213.44.51.793.89 1.06.381.266.828.4 1.34.4.598 0 1.085-.118 1.46-.351.376-.234.645-.47.808-.71.098-.13.172-.211.22-.244.05-.033.14-.049.27-.049h.261a.37.37 0 0 1 .245.082.263.263 0 0 1 .098.212c0 .228-.144.502-.432.823-.289.32-.689.597-1.2.831-.512.234-1.089.35-1.73.35-1.035 0-1.867-.34-2.499-1.018zm5.11-3.888v-.065c0-.837-.236-1.527-.71-2.07-.473-.544-1.107-.816-1.902-.816-.794 0-1.423.272-1.885.816-.463.543-.694 1.233-.694 2.07v.065h5.191zm8.93 4.646a.76.76 0 0 1-.196-.31l-2.301-7.564-.033-.179c0-.087.033-.163.098-.228a.313.313 0 0 1 .228-.098h.31a.37.37 0 0 1 .246.082c.065.054.103.108.114.163l2.008 6.78 2.138-6.699a.437.437 0 0 1 .441-.326h.327a.436.436 0 0 1 .44.326l2.14 6.7 2.007-6.781c.011-.055.05-.11.114-.163a.37.37 0 0 1 .245-.082h.31c.088 0 .164.033.23.098a.313.313 0 0 1 .097.228l-.033.18-2.301 7.563a.76.76 0 0 1-.196.31.488.488 0 0 1-.327.098h-.277c-.294 0-.48-.136-.555-.408l-2.057-6.423-2.058 6.423c-.076.272-.26.408-.555.408h-.277a.488.488 0 0 1-.327-.098zm11.329-.065a2.803 2.803 0 0 1-1.07-.88c-.266-.37-.4-.778-.4-1.223 0-.718.291-1.304.874-1.76.582-.457 1.368-.75 2.359-.881l2.58-.359v-.57c0-.598-.183-1.057-.548-1.378-.364-.32-.922-.48-1.673-.48-.555 0-1.01.108-1.363.325-.354.218-.58.479-.678.783a.583.583 0 0 1-.155.269.362.362 0 0 1-.237.073h-.228a.346.346 0 0 1-.253-.106.345.345 0 0 1-.106-.252c0-.24.109-.52.326-.84.218-.32.555-.6 1.012-.84.458-.238 1.018-.358 1.682-.358 1.165 0 1.992.277 2.481.831.49.555.735 1.228.735 2.022v5.428a.352.352 0 0 1-.098.26.353.353 0 0 1-.261.099h-.278a.353.353 0 0 1-.26-.098.352.352 0 0 1-.099-.261v-.766c-.24.358-.59.663-1.053.913-.462.25-1.075.375-1.836.375a3.273 3.273 0 0 1-1.453-.326zm3.575-1.402c.511-.522.767-1.272.767-2.25v-.554l-2.106.293c-.892.12-1.567.326-2.024.62-.457.293-.686.663-.686 1.108 0 .5.21.886.629 1.158.419.271.906.407 1.46.407.795 0 1.448-.26 1.96-.782zm5.258 4.564a.313.313 0 0 1-.098-.228c0-.055.033-.163.098-.326l1.257-2.935-3.118-7.335c-.065-.163-.098-.272-.098-.326 0-.087.033-.163.098-.228a.313.313 0 0 1 .229-.098h.343c.174 0 .299.082.375.245l2.743 6.455 2.808-6.455c.087-.163.212-.245.375-.245h.327c.087 0 .163.033.228.098a.313.313 0 0 1 .098.228c0 .054-.032.163-.098.326l-4.636 10.677a.388.388 0 0 1-.376.245h-.326a.313.313 0 0 1-.229-.098zm11.575 0a.313.313 0 0 1-.098-.228c0-.055.033-.163.098-.326l1.257-2.935-3.118-7.335c-.065-.163-.098-.272-.098-.326 0-.087.033-.163.098-.228a.313.313 0 0 1 .229-.098h.342c.175 0 .3.082.376.245l2.743 6.455 2.808-6.455c.087-.163.212-.245.375-.245h.327c.087 0 .163.033.228.098a.313.313 0 0 1 .098.228c0 .054-.033.163-.098.326l-4.636 10.677a.388.388 0 0 1-.376.245h-.326a.313.313 0 0 1-.229-.098zm7.518-3.872c-.626-.69-.955-1.583-.988-2.681l-.016-.685.016-.684c.033-1.098.362-1.992.988-2.682s1.505-1.035 2.637-1.035c1.132 0 2.01.345 2.636 1.035.626.69.955 1.584.988 2.682.01.108.016.337.016.684 0 .348-.005.576-.016.685-.033 1.098-.362 1.991-.988 2.681s-1.504 1.036-2.636 1.036c-1.132 0-2.011-.346-2.637-1.036zm4.506-.652c.473-.494.726-1.198.759-2.11.01-.11.016-.31.016-.604 0-.293-.005-.494-.016-.603-.033-.913-.286-1.616-.76-2.11-.473-.495-1.096-.743-1.868-.743-.773 0-1.396.248-1.87.742-.473.495-.726 1.198-.759 2.111l-.016.603.016.603c.033.913.286 1.617.76 2.111.473.495 1.096.742 1.869.742.772 0 1.395-.247 1.869-.742zm4.759.677c-.555-.674-.833-1.554-.833-2.64v-4.63c0-.109.033-.196.098-.261a.353.353 0 0 1 .261-.098h.278c.109 0 .196.033.261.098a.352.352 0 0 1 .098.26v4.549c0 1.858.81 2.787 2.432 2.787.784 0 1.407-.247 1.87-.742.462-.494.694-1.176.694-2.045v-4.548c0-.109.032-.196.098-.261a.353.353 0 0 1 .26-.098h.278c.11 0 .196.033.262.098a.352.352 0 0 1 .097.26v7.76a.352.352 0 0 1-.097.26.353.353 0 0 1-.262.099h-.277a.353.353 0 0 1-.261-.098.352.352 0 0 1-.098-.261v-.766c-.327.424-.7.744-1.119.962-.419.217-.955.326-1.608.326-1.066 0-1.877-.337-2.432-1.011zm13.566 3.847a.352.352 0 0 1-.098-.26V62.597c0-.109.033-.196.098-.261a.353.353 0 0 1 .261-.098h.278c.109 0 .196.033.261.098a.352.352 0 0 1 .098.26v.767c.631-.859 1.546-1.288 2.743-1.288 1.175 0 2.043.372 2.604 1.117.56.744.857 1.66.89 2.746.01.109.016.288.016.538 0 .25-.006.43-.017.538-.032 1.087-.329 2.002-.89 2.747-.56.744-1.428 1.117-2.603 1.117-1.187 0-2.1-.43-2.743-1.288v3.863a.352.352 0 0 1-.098.26.353.353 0 0 1-.261.099h-.278a.353.353 0 0 1-.26-.098zm5.477-4.621c.409-.56.629-1.28.662-2.16.01-.109.016-.261.016-.457 0-1.01-.196-1.839-.588-2.486-.392-.646-1.066-.97-2.024-.97-.86 0-1.508.286-1.943.856-.435.57-.67 1.242-.702 2.013l-.016.636.016.636c.011.467.114.91.31 1.328.196.419.49.764.882 1.036.392.271.876.407 1.453.407.881 0 1.526-.28 1.934-.84zm4.727 1.459a2.803 2.803 0 0 1-1.07-.88c-.266-.37-.4-.778-.4-1.223 0-.718.292-1.304.874-1.76.582-.457 1.368-.75 2.359-.881l2.58-.359v-.57c0-.598-.183-1.057-.548-1.378-.364-.32-.922-.48-1.673-.48-.555 0-1.01.108-1.363.325-.354.218-.58.479-.678.783a.583.583 0 0 1-.155.269.362.362 0 0 1-.237.073h-.228a.346.346 0 0 1-.253-.106.345.345 0 0 1-.106-.252c0-.24.109-.52.326-.84.218-.32.555-.6 1.012-.84.458-.238 1.018-.358 1.682-.358 1.165 0 1.992.277 2.481.831.49.555.735 1.228.735 2.022v5.428a.352.352 0 0 1-.098.26.353.353 0 0 1-.261.099h-.278a.353.353 0 0 1-.26-.098.352.352 0 0 1-.099-.261v-.766c-.24.358-.59.663-1.053.913-.462.25-1.075.375-1.836.375a3.273 3.273 0 0 1-1.453-.326zm3.575-1.402c.511-.522.767-1.272.767-2.25v-.554l-2.106.293c-.892.12-1.567.326-2.024.62-.457.293-.686.663-.686 1.108 0 .5.21.886.629 1.158.419.271.906.407 1.46.407.795 0 1.448-.26 1.96-.782zm5.257 4.564a.313.313 0 0 1-.098-.228c0-.055.032-.163.098-.326l1.257-2.935-3.118-7.335c-.066-.163-.098-.272-.098-.326 0-.087.032-.163.098-.228a.313.313 0 0 1 .228-.098h.343c.174 0 .3.082.376.245l2.742 6.455 2.808-6.455c.087-.163.212-.245.376-.245h.326c.087 0 .163.033.229.098a.313.313 0 0 1 .098.228c0 .054-.033.163-.098.326l-4.637 10.677a.388.388 0 0 1-.375.245h-.327a.313.313 0 0 1-.228-.098z"/>
        </g>
    </g>
</svg>
