<?xml version="1.0" encoding="UTF-8"?>
<svg width="59px" height="21px" viewBox="0 0 59 21" version="1.1" xmlns="http://www.w3.org/2000/svg" xmlns:xlink="http://www.w3.org/1999/xlink">
    <!-- Generator: Sketch 64 (93537) - https://sketch.com -->
    <title>Combined Shape</title>
    <desc>Created with Sketch.</desc>
    <g id="Symbols" stroke="none" stroke-width="1" fill="none" fill-rule="evenodd">
        <g id="Footer-v1" transform="translate(-617.000000, -541.000000)" fill="#FFFFFF" fill-rule="nonzero">
            <g id="Footer-v5" transform="translate(-1.000000, 0.000000)">
                <g id="footer" transform="translate(0.000000, 170.000000)">
                    <g id="BOTTOM">
                        <g id="Payment-logos" transform="translate(462.000000, 371.000000)">
                            <g id="ZipPay-Logo" transform="translate(156.400000, 0.000000)">
                                <g id="Colour">
                                    <path d="M52.4787628,4.30211867 C53.2587412,4.28691362 54.0317506,4.45585857 54.7356268,4.7954379 C55.3798477,5.11671486 55.9407185,5.58581865 56.3736372,6.16501822 C56.8246755,6.78476459 57.1538944,7.48588609 57.3437319,8.23065171 C57.5608881,9.0722791 57.6673755,9.93896665 57.6604065,10.8087515 C57.6684906,11.6945862 57.5458349,12.5767603 57.2968997,13.4262718 C57.0769558,14.1808926 56.7156792,14.8859561 56.2331407,15.5031683 C55.7681643,16.084902 55.1788597,16.552598 54.5092713,16.8716223 C53.780864,17.2089491 52.9866687,17.3773309 52.1855043,17.3638153 C51.6488858,17.3793019 51.1136612,17.3032767 50.6021314,17.1385553 C50.2347219,17.0126914 49.8857109,16.8381149 49.5640185,16.6193312 C49.3897918,16.4996619 49.2289456,16.361127 49.0845465,16.2059793 L49.0845465,19.2244622 C49.0845465,19.7493178 48.9429349,20.1367649 48.663057,20.3755404 C48.3831792,20.6145975 47.9527693,20.7238486 47.3428362,20.7238486 C45.9624027,20.7238486 45.6702592,19.9455755 45.6702592,19.2923218 L45.6702592,6.03662007 C45.6582724,5.62129709 45.8163309,5.21977128 46.1073593,4.92608865 C46.3961576,4.63437705 46.8589039,4.4857055 47.4811026,4.4857055 C47.8680254,4.48176346 48.250488,4.57130428 48.596154,4.74700701 C48.9630059,4.93735165 49.1536796,5.31015682 49.1536796,5.84514914 C49.2281093,5.75870564 49.3078355,5.67029112 49.3934157,5.57934243 C49.6278552,5.33915903 49.8898923,5.12797786 50.1739516,4.95086724 C50.8644472,4.51555244 51.6647753,4.29029252 52.4787628,4.30211867 Z M19.4118095,0.345873113 C20.9161048,0.831017945 22.0447502,2.07441166 22.3729139,3.60799593 C22.7010775,5.1415802 22.1787292,6.73202613 21.0025975,7.78018546 L21.0025975,7.78578759 L16.4251053,11.8653387 L18.0145879,11.860819 C20.3435062,11.8984329 22.2253606,13.7680911 22.3340433,16.0808884 L22.3390019,16.2923248 C22.3390019,18.6307037 20.6191797,20.566699 18.2332923,20.7153017 L18.0145879,20.7238486 L4.87362005,20.7238486 L5.04010526,20.719 L4.82897286,20.7237874 C3.70051752,20.7178464 2.57813225,20.279045 1.7288384,19.4216301 L1.57286128,19.2559627 C-0.00448531382,17.4934462 0.0848725567,14.8093964 1.7378305,13.1556435 L1.90267187,12.9988847 L1.93981778,12.9649465 C2.00509309,12.907039 2.07189612,12.8512453 2.1401224,12.7976046 L7.04503698,8.4257941 C6.40333356,8.78719629 5.66254734,8.99336825 4.87362005,8.99336825 C2.42621786,8.99336825 0.442105263,7.00925565 0.442105263,4.56185346 C0.442105263,2.11445127 2.42621786,0.13033867 4.87362005,0.13033867 C7.32102224,0.13033867 9.30513484,2.11445127 9.30513484,4.56185346 C9.30513484,5.53294768 8.99275833,6.4311021 8.46301037,7.16131166 L15.0803888,1.25593983 C16.2565205,0.207500395 17.9075142,-0.139271719 19.4118095,0.345873113 Z M41.6221974,4.69219213 C42.148613,4.69219213 42.5652653,4.81256031 42.8620741,5.0510468 C43.1588829,5.2895333 43.3235278,5.6742615 43.3235278,6.16923347 L43.3235278,15.6186983 C43.3235278,16.1327941 43.162243,16.5107727 42.8441536,16.7436345 C42.5260642,16.9764963 42.1172521,17.0743658 41.5964367,17.0743658 C40.1135128,17.0743658 39.8043837,16.3094091 39.8043837,15.6681954 L39.8043837,6.30872557 C39.8043837,5.81937829 39.951108,5.42340071 40.2423166,5.13204222 C40.5335252,4.84068372 40.997219,4.69219213 41.6221974,4.69219213 Z M36.9435951,4.69356666 C37.296576,4.6772627 37.6408586,4.80656999 37.8964752,5.05112943 C38.1332923,5.28838021 38.2533843,5.62570358 38.2533843,6.05297985 C38.2634855,6.38580558 38.1941801,6.71610138 38.0513603,7.01660028 C37.9144329,7.2785881 37.7424319,7.52061762 37.5406884,7.73622348 L31.8941162,14.0632855 L37.2443864,14.0632855 C37.566222,14.0551336 37.8726251,14.201307 38.069318,14.4568295 C38.2789179,14.7424299 38.3847,15.0909974 38.368987,15.4451869 C38.3841388,15.8139938 38.2960339,16.1799897 38.1142122,16.5010091 C37.9312682,16.7944804 37.6069074,16.9440271 37.1512309,16.9440271 L28.4956227,16.9429027 C28.1308571,16.9563957 27.7778762,16.8119088 27.5270296,16.5459856 C27.2815143,16.2775324 27.1504792,15.9236239 27.162264,15.5598769 C27.1588969,15.1933188 27.2492466,14.8323828 27.4248952,14.5108012 C27.5792192,14.223233 27.7674944,13.9556232 27.9860732,13.7135936 L33.4081742,7.57205944 L28.6819338,7.57205944 C28.2240126,7.57205944 27.8962847,7.41464186 27.7167078,7.10205554 C27.5419008,6.7880637 27.4546377,6.43274975 27.4641777,6.07321925 C27.4515512,5.72690059 27.5511603,5.38564178 27.7481337,5.10060353 C27.9434236,4.83102593 28.2610503,4.6778249 28.5932677,4.69356666 L36.9435951,4.69356666 Z M51.6208481,7.16928889 C51.2387526,7.15991269 50.8605818,7.25026519 50.5230595,7.43182257 C50.2054409,7.61451645 49.9329561,7.86824218 49.7269105,8.17396321 C49.4953544,8.5197462 49.3263129,8.90473876 49.2279156,9.31047262 C49.1118573,9.78212402 49.0549495,10.2665612 49.0585938,10.7527031 C49.0585938,11.8596632 49.2828611,12.7472771 49.7313958,13.3916779 C50.1799305,14.0360787 50.7888163,14.3372537 51.6253335,14.3372537 C52.4618506,14.3372537 53.0707364,14.0144851 53.4934804,13.3496271 C53.9162243,12.684769 54.1416374,11.7994282 54.1416374,10.7527031 C54.1430146,10.2679818 54.0841445,9.7849653 53.9666844,9.31501866 C53.8682871,8.91098956 53.70289,8.52656525 53.4777816,8.17850925 C53.277623,7.87250409 53.0085022,7.61877836 52.692846,7.43864162 C52.3642943,7.25708425 51.9950942,7.1641746 51.6208481,7.16928889 Z M41.6294606,-1.19015908e-13 C42.1086305,0.00113576365 42.5743657,0.160426616 42.9561343,0.454305461 C43.3726091,0.765504702 43.5842051,1.24934002 43.5842051,1.89218225 C43.5842051,2.46574289 43.400598,2.93027022 43.0389814,3.27213508 C42.6773649,3.61399994 42.2037927,3.77982144 41.6294606,3.77982144 L41.6294606,3.77641415 C41.0517697,3.77641415 40.5781976,3.60491383 40.2199397,3.26645627 C39.8616818,2.9279987 39.674716,2.46119984 39.674716,1.88763919 C39.6610015,1.37910102 39.8580433,0.888167177 40.2177006,0.533808917 C40.5725998,0.180586421 41.0484111,-1.19015908e-13 41.6294606,-1.19015908e-13 Z" id="Combined-Shape"></path>
                                </g>
                            </g>
                        </g>
                    </g>
                </g>
            </g>
        </g>
    </g>
</svg>