<?xml version="1.0" encoding="UTF-8"?>
<svg width="54px" height="20px" viewBox="0 0 54 20" version="1.1" xmlns="http://www.w3.org/2000/svg" xmlns:xlink="http://www.w3.org/1999/xlink">
    <title>50D71E3C-A3AC-43F3-B5DB-750FE9FBE9F0@1x</title>
    <g id="5.-Checkout" stroke="none" stroke-width="1" fill="none" fill-rule="evenodd">
        <g id="Checkout---All-Payments-Combined" transform="translate(-1250.000000, -474.000000)" fill-rule="nonzero">
            <g id="Payment-Section" transform="translate(1054.000000, 416.000000)">
                <g id="Payment-Method">
                    <g id="Cards" transform="translate(0.000000, 43.000000)">
                        <g id="zip" transform="translate(149.000000, 0.000000)">
                            <g id="Zip-Icon" transform="translate(47.000000, 15.000000)">
                                <g id="ICON">
                                    <path d="M48.2745275,4.16752756 C48.9737314,4.15363971 49.666688,4.3079492 50.2976708,4.61811126 C50.8751762,4.91155646 51.3779633,5.34002247 51.7660489,5.86904682 C52.1703777,6.43510544 52.4655027,7.07548981 52.6356807,7.75573745 C52.8303482,8.52445587 52.9258078,9.31606352 52.9195604,10.1105002 C52.9268074,10.9195963 52.8168539,11.7253489 52.5936984,12.5012685 C52.3965319,13.1905175 52.0726691,13.8345024 51.6401023,14.3982464 C51.2232788,14.9295854 50.6950025,15.3567655 50.0947567,15.6481532 C49.4417832,15.9562578 48.7298347,16.110053 48.0116389,16.0977082 C47.5305926,16.1118532 47.0507957,16.042414 46.5922399,15.8919622 C46.2628794,15.7770017 45.9500119,15.6175485 45.661634,15.4177177 C45.5054502,15.3084152 45.3612612,15.1818814 45.2318161,15.0401739 L45.2318161,17.79717 C45.2318161,18.2765581 45.1048698,18.6304412 44.8539761,18.8485319 C44.6030823,19.0668799 44.2172457,19.1666667 43.6704772,19.1666667 C42.4330013,19.1666667 42.1711122,18.4558143 42.1711122,17.859151 L42.1711122,5.75177161 C42.1603667,5.37242746 42.3020567,5.00568525 42.5629463,4.73744393 C42.8218366,4.47100288 43.236661,4.33521054 43.7944248,4.33521054 C44.1412779,4.33160998 44.4841327,4.41339401 44.7940015,4.57387587 C45.1228622,4.74773123 45.2937898,5.08824082 45.2937898,5.57688753 C45.3605116,5.49793251 45.4319813,5.41717721 45.5086988,5.33410727 C45.7188598,5.11473062 45.9537603,4.92184376 46.2084025,4.76007599 C46.8273904,4.36247188 47.5448365,4.1567259 48.2745275,4.16752756 Z M34.1870271,5.00121539 C34.5255295,4.98679908 34.8556905,5.10113534 35.1008223,5.31738001 C35.3279257,5.52716219 35.4430919,5.8254307 35.4430919,6.20323747 C35.4527788,6.49752906 35.386316,6.78958364 35.2493544,7.05529117 C35.1180434,7.28694638 34.9530975,7.50095403 34.759629,7.69159732 L29.3446658,13.2861203 L34.4754807,13.2861203 C34.7841153,13.2789121 35.0779505,13.4081618 35.2665755,13.6341002 C35.4675782,13.8866342 35.5690213,14.194845 35.5539528,14.5080269 C35.5684831,14.8341338 35.483992,15.1577552 35.3096283,15.4416074 C35.1341882,15.701101 34.8231319,15.8333333 34.3861462,15.8333333 L26.0855704,15.8323391 C25.7357666,15.8442698 25.3972641,15.7165115 25.1567067,15.4813765 C24.9212618,15.2440045 24.7956015,14.9310711 24.8069029,14.6094382 C24.8036739,14.2853198 24.8903176,13.9661725 25.0587616,13.6818232 C25.2067556,13.4275493 25.3873081,13.1909229 25.5969214,12.9769153 L30.7966207,7.54643998 L26.2642394,7.54643998 C25.8251011,7.54643998 25.5108158,7.40724801 25.3386047,7.13085253 C25.1709679,6.85321426 25.0872841,6.5390381 25.0964328,6.22113358 C25.0843242,5.91491125 25.1798476,5.61316294 25.3687416,5.36112605 C25.5560212,5.1227598 25.8606196,4.98729619 26.1792102,5.00121539 L34.1870271,5.00121539 Z M38.8851139,4.3865353 C39.3302042,4.3865353 39.6824884,4.49781062 39.9334435,4.71828134 C40.1843987,4.93875205 40.3236078,5.29441708 40.3236078,5.75199781 L40.3236078,14.48763 C40.3236078,14.96289 40.1872397,15.3123153 39.9182915,15.5275862 C39.6493434,15.7428571 39.3036881,15.8333333 38.8633329,15.8333333 C37.6095041,15.8333333 37.348132,15.1261631 37.348132,14.5333881 L37.348132,5.88095238 C37.348132,5.42857143 37.4721891,5.06250684 37.7184092,4.79315818 C37.9646294,4.52380952 38.3566876,4.3865353 38.8851139,4.3865353 Z M47.4748662,6.91012147 C47.1342604,6.90163445 46.7971532,6.98341848 46.4962806,7.14775808 C46.2131505,7.31312641 45.9702533,7.54279036 45.7865811,7.8195187 C45.5801685,8.13250978 45.4294823,8.48099203 45.3417695,8.8482486 C45.2383133,9.27517151 45.1875848,9.71366763 45.1908334,10.1537068 C45.1908334,11.1556898 45.3907487,11.9591278 45.7905794,12.5424177 C46.1904101,13.1257075 46.7331803,13.3983209 47.4788645,13.3983209 C48.2245487,13.3983209 48.7673188,13.1061617 49.1441593,12.5043547 C49.5209997,11.9025477 49.7219364,11.1011671 49.7219364,10.1537068 C49.7231641,9.71495354 49.6706863,9.27774334 49.5659806,8.85236352 C49.4782678,8.48665004 49.3308302,8.13868216 49.1301652,7.82363362 C48.9517407,7.5466481 48.7118423,7.31698415 48.4304615,7.15393046 C48.1375855,6.98959086 47.8084749,6.90549219 47.4748662,6.91012147 Z M38.8633329,5.97299987e-14 C39.2686491,0.00103995621 39.6626014,0.146893815 39.9855286,0.415982485 C40.3378128,0.700930487 40.5167959,1.14395183 40.5167959,1.73256705 C40.5167959,2.25774494 40.3614878,2.68308703 40.0556066,2.99611385 C39.7497254,3.30914067 39.3491442,3.46097427 38.8633329,3.46097427 L38.8633329,3.45785441 C38.3746806,3.45785441 37.9740994,3.30082102 37.6710592,2.99091407 C37.368019,2.68100712 37.2098699,2.25358511 37.2098699,1.72840722 C37.1982692,1.26276683 37.3649413,0.813245758 37.6691652,0.48877942 C37.9693644,0.165353038 38.3718396,5.97299987e-14 38.8633329,5.97299987e-14 Z" id="Combined-Shape" fill="#23295E"></path>
                                    <path d="M18.5493183,7.75497277 L14.4325395,11.5112838 L4.23647112,11.5112838 C3.28542732,11.5100175 2.36684236,11.8615386 1.65374677,12.5 L6.79622461,7.80663725 L6.87512454,7.73572523 L13.3179532,1.85104052 C14.3568855,0.903098757 15.8152858,0.589566322 17.1441005,1.02820782 C18.4729152,1.46684932 19.4699007,2.59105811 19.759783,3.97764138 C20.0496654,5.36422464 19.5882506,6.80221912 18.5493183,7.74990763 L18.5493183,7.75497277 L18.5493183,7.75497277 Z" id="Path" fill="#F15C3F"></path>
                                    <path d="M4.13436693,8.33333333 C6.41766262,8.33333333 8.26873385,6.46780061 8.26873385,4.16666667 C8.26873385,1.86553272 6.41766262,0 4.13436693,0 C1.85107123,0 0,1.86553272 0,4.16666667 C0,6.46780061 1.85107123,8.33333333 4.13436693,8.33333333 L4.13436693,8.33333333 Z" id="Path" fill="#F8991F"></path>
                                    <path d="M4.72409917,11.6666667 C3.77654777,11.6653407 2.86133601,12.0344321 2.15085903,12.7048063 L2.11802186,12.7367162 C0.517707296,14.2753062 0.387104911,16.9092042 1.82646758,18.6198419 C3.26583025,20.3304795 5.72986192,20.4700854 7.33017649,18.9314954 L14.8837209,11.6677339 L4.72409917,11.6666667 L4.72409917,11.6666667 Z" id="Path" fill="#23295E"></path>
                                    <path d="M15.2660984,11.6709222 L7.6043138,18.9361103 C6.87870485,19.6239041 5.93687654,20.0029088 4.96124031,20 L16.7819046,20 C19.0296272,19.9622157 20.6718346,18.0985763 20.6718346,15.8333249 C20.6718346,13.5680735 18.9403137,11.7031043 16.7819046,11.6666667 L15.2660984,11.6709222 L15.2660984,11.6709222 Z" id="Path" fill="#00AEB8"></path>
                                </g>
                            </g>
                        </g>
                    </g>
                </g>
            </g>
        </g>
    </g>
</svg>