<?xml version="1.0" encoding="UTF-8"?>
<svg width="1296px" height="253px" viewBox="0 0 1296 253" version="1.1" xmlns="http://www.w3.org/2000/svg" xmlns:xlink="http://www.w3.org/1999/xlink">
    <!-- Generator: Sketch 50.2 (55047) - http://www.bohemiancoding.com/sketch -->
    <title>Logo/x-large/primary-money</title>
    <desc>Created with Sketch.</desc>
    <defs></defs>
    <g id="Logo/x-large/primary-money" stroke="none" stroke-width="1" fill="none" fill-rule="evenodd">
        <g id="Logo/SubPay" transform="translate(31.000000, 32.000000)">
            <g id="Logo/item/zip/with-divider">
                <g id="Logo/item/zip/no-divider" fill-rule="evenodd" stroke-width="1">
                    <g id="Asset-1">
                        <g id="Logo/icon/colour-primary" fill-rule="nonzero">
                            <path d="M184.342041,69.28 L142.701429,106.36 L39.5696939,106.36 C29.9500642,106.347169 20.6580699,109.818701 13.4458163,116.12 L65.4612245,69.79 L66.2592857,69.09 L131.427551,11 C141.935479,1.6432142 156.687928,-1.45352478 170.127792,2.87629467 C183.567656,7.20611412 193.653101,18.3046894 196.585037,31.9912947 C199.516973,45.6778999 194.849969,59.8732142 184.342041,69.23 L184.342041,69.28 Z" id="Shape" fill="#F15B41"></path>
                            <ellipse id="Oval" fill="#F99D1D" cx="39.5696939" cy="40.17" rx="39.5696939" ry="39.17"></ellipse>
                            <path d="M39.5696939,106.36 C29.9500642,106.347169 20.6580699,109.818701 13.4458163,116.12 L13.112449,116.42 C-3.13418985,130.884338 -4.45938102,155.647468 10.1525516,171.729999 C24.7644843,187.812531 49.7802993,189.124337 66.0269388,174.66 L142.711531,106.37 L39.5696939,106.36 Z" id="Shape" fill="#272560"></path>
                            <path d="M142.648159,106.389998 L65.9555155,174.679998 C58.6935651,181.144242 49.2650635,184.708012 39.4989781,184.680485 L157.821018,184.679998 C180.643771,184.318975 196.757446,167.321861 196.757446,145.514998 C196.757446,123.708136 179.424918,106.691741 157.821018,106.349998 L142.648159,106.389998 Z" id="Shape" fill="#00B6BD"></path>
                        </g>
                        <g id="Logo/item/zip/text/primary" transform="translate(240.789062, 1.000000)" fill="#272560" fill-rule="nonzero">
                            <path d="M12.2637868,150.94 C8.97727249,151.060323 5.79774197,149.773962 3.53860294,147.41 C1.32700673,145.023518 0.14760273,141.875661 0.252757353,138.64 C0.221928856,135.38109 1.03647048,132.168796 2.61856618,129.31 C4.0084879,126.753747 5.70585942,124.373131 7.67371324,122.22 L56.5165441,67.6 L13.9420956,67.6 C9.81709559,67.6 6.86488971,66.2 5.24724265,63.42 C3.67221186,60.6273055 2.88643826,57.466686 2.97242647,54.27 C2.85868983,51.1891596 3.75603171,48.1546415 5.53033088,45.62 C7.28896235,43.2213278 10.1510398,41.8604122 13.1433824,42 L88.3639706,42 C91.5443486,41.8550662 94.6460804,43.0041716 96.9476103,45.18 C99.0808824,47.29 100.162684,50.29 100.162684,54.09 C100.252725,57.0490734 99.6288932,59.9868035 98.3428309,62.66 C97.108721,64.9890443 95.5612504,67.1419608 93.7426471,69.06 L42.8777574,125.33 L91.0735294,125.33 C93.9729449,125.258619 96.7330798,126.558631 98.5045956,128.83 C100.392199,131.369455 101.344746,134.47116 101.204044,137.62 C101.341665,140.900672 100.546561,144.153789 98.9090074,147.01 C97.2610294,149.62 94.3391544,150.95 90.234375,150.95 L12.2637868,150.94 Z" id="Shape"></path>
                            <path d="M130.422794,152.38 C117.036765,152.38 114.246324,145.58 114.246324,139.88 L114.246324,56.68 C114.246324,52.33 115.570772,48.81 118.199449,46.22 C120.828125,43.63 125.013787,42.31 130.655331,42.31 C135.407169,42.31 139.168199,43.38 141.847426,45.5 C144.526654,47.62 146.012868,51.04 146.012868,55.44 L146.012868,139.44 C146.012868,144.01 144.556985,147.37 141.685662,149.44 C138.814338,151.51 135.124081,152.38 130.422794,152.38 Z M130.422794,33.38 C125.205882,33.38 120.929228,31.87 117.693934,28.89 C114.45864,25.91 112.770221,21.8 112.770221,16.75 C112.645962,12.272986 114.424539,7.94940789 117.673713,4.83 C120.878676,1.72 125.175551,0.13 130.422794,0.13 C134.749862,0.139333234 138.955912,1.5436085 142.403493,4.13 C146.164522,6.87 148.075368,11.13 148.075368,16.79 C148.075368,21.84 146.417279,25.93 143.151654,28.94 C139.886029,31.95 135.609375,33.41 130.422794,33.41 L130.422794,33.38 Z" id="Shape"></path>
                            <path d="M180.913603,184.261519 C168.397059,184.261519 165.748162,177.351447 165.748162,171.551386 L165.748162,53.8601605 C165.640106,50.1738769 167.073918,46.606707 169.711397,44.0000578 C172.329963,41.4100308 176.525735,40.0900171 182.167279,40.0900171 C185.676215,40.0547564 189.142772,40.8502325 192.277574,42.4100412 C195.60386,44.1000588 197.332721,47.4100933 197.332721,52.1601428 C198.00674,51.3934681 198.731311,50.6067933 199.506434,49.8001182 C201.631258,47.6666927 204.007324,45.7932712 206.58364,44.2200601 C212.845541,40.3541981 220.100827,38.3544411 227.481618,38.4600001 C234.554457,38.3240822 241.56164,39.8239321 247.944853,42.8400457 C253.786606,45.692244 258.872789,49.8565679 262.796875,55.0001724 C266.886363,60.501712 269.872183,66.7273575 271.592831,73.3403634 C273.561143,80.8127934 274.526541,88.5089656 274.464154,96.2306019 C274.536438,104.09613 273.425635,111.928557 271.168199,119.470844 C269.173482,126.17052 265.89938,132.430104 261.522978,137.911036 C257.306155,143.075457 251.962568,147.229208 245.892463,150.061163 C239.287557,153.056801 232.087804,154.550084 224.82261,154.431208 C219.957322,154.569418 215.103412,153.893219 210.465993,152.431187 C207.135544,151.314361 203.970192,149.764067 201.053309,147.821139 C199.472329,146.759383 198.014396,145.528616 196.705882,144.151101 L196.705882,170.95138 C196.705882,175.611429 195.421875,179.051465 192.884191,181.171487 C190.346507,183.291509 186.443934,184.261519 180.913603,184.261519 Z M219.393382,65.1202778 C215.948355,65.0378582 212.539811,65.8333558 209.495404,67.4303019 C206.630519,69.0371184 204.175143,71.2707604 202.317096,73.9603699 C200.229609,77.0034111 198.706174,80.3895488 197.818015,83.9604741 C196.771616,88.110186 196.258682,92.3738929 196.29136,96.6506062 C196.29136,106.390708 198.313419,114.200789 202.357537,119.870848 C206.401654,125.540907 211.891544,128.190935 219.433824,128.190935 C226.976103,128.190935 232.465993,125.350905 236.277574,119.500844 C240.089154,113.650783 242.121324,105.860702 242.121324,96.6506062 C242.13397,92.3851623 241.604075,88.1350863 240.544118,84.0004745 C239.655828,80.4449447 238.165408,77.0638075 236.136029,74.0003703 C234.33095,71.3070585 231.905424,69.0759047 229.058824,67.4903025 C226.096452,65.8918819 222.767574,65.0756209 219.393382,65.1202778 Z" id="Shape"></path>
                        </g>
                    </g>
                </g>
                <g id="Logo/item/divider/colour" transform="translate(546.000000, 0.000000)" fill="#00B6BD" fill-rule="nonzero">
                    <path d="M5,183.589058 C5,185.263323 4.175,186 2.5,186 C0.825,186 0,185.263323 0,183.589058 L0,2.41094168 C0,0.736676623 0.825,0 2.5,0 C4.175,0 5,0.736676623 5,2.41094168 L5,183.589058 Z" id="Shape"></path>
                </g>
            </g>
            <g id="Logo/item/sub/money" transform="translate(591.000000, 1.000000)" fill="#272560">
                <path d="M118.126667,41 C129.157463,41 137.884227,43.7830554 144.307222,49.3492497 C150.730217,54.9154439 153.941667,63.4610611 153.941667,74.9863574 L153.941667,137.45839 C153.941667,142.042315 151.079288,144.334243 145.354444,144.334243 C139.21071,144.334243 136.138889,142.042315 136.138889,137.45839 L136.138889,80.2905866 C136.138889,76.6234469 135.824725,73.2837804 135.196389,70.271487 C134.568052,67.2591937 133.416119,64.7380729 131.740556,62.7080491 C130.064992,60.6780253 127.796033,59.1064176 124.933611,57.9931787 C122.071189,56.8799399 118.405948,56.3233288 113.937778,56.3233288 C108.492195,56.3233288 103.954277,57.5020346 100.323889,59.8594816 C96.6935004,62.2169286 93.8311216,65.2291768 91.7366667,68.8963165 C89.6422118,72.5634563 88.1412082,76.6889266 87.2336111,81.2728513 C86.326014,85.856776 85.8722222,90.3751483 85.8722222,94.8281037 L85.8722222,137.45839 C85.8722222,142.042315 83.0098434,144.334243 77.285,144.334243 C71.1412656,144.334243 68.0694444,142.042315 68.0694444,137.45839 L68.0694444,80.2905866 C68.0694444,76.6234469 67.7552809,73.2837804 67.1269444,70.271487 C66.498608,67.2591937 65.346675,64.7380729 63.6711111,62.7080491 C61.9955472,60.6780253 59.7265884,59.1064176 56.8641667,57.9931787 C54.0017449,56.8799399 50.3365038,56.3233288 45.8683333,56.3233288 C40.4227506,56.3233288 35.884833,57.4692928 32.2544444,59.7612551 C28.6240559,62.0532175 25.7616771,65.0327238 23.6672222,68.6998636 C21.5727673,72.3670033 20.0717638,76.4924737 19.1641667,81.0763984 C18.2565695,85.6603231 17.8027778,90.1786953 17.8027778,94.6316508 L17.8027778,136.476126 C17.8027778,139.488419 16.9999154,141.551154 15.3941667,142.664393 C13.7884179,143.777632 11.5892732,144.334243 8.79666667,144.334243 C6.00406011,144.334243 3.83982249,143.777632 2.30388889,142.664393 C0.767955283,141.551154 0,139.488419 0,136.476126 L0,50.4297408 C0,47.5484167 0.698141167,45.583907 2.09444444,44.5361528 C3.49074772,43.4883986 5.58517122,42.9645293 8.37777778,42.9645293 C11.1703843,42.9645293 13.2997149,43.4883986 14.7658333,44.5361528 C16.2319518,45.583907 16.965,47.5484167 16.965,50.4297408 L16.965,59.6630286 C17.1046303,59.1391515 17.6631433,57.9604457 18.6405556,56.1268759 C19.7575982,54.0313674 21.5727652,51.8704068 24.0861111,49.6439291 C26.599457,47.4174514 29.9854417,45.4201998 34.2441667,43.6521146 C38.5028917,41.8840294 43.8436716,41 50.2666667,41 C58.7841167,41 65.7306213,42.6043496 71.1063889,45.8130969 C76.4821565,49.0218441 80.35684,53.3765073 82.7305556,58.8772169 C85.6627924,53.5074766 90.20071,49.1855553 96.3444444,45.9113233 C102.488179,42.6370914 109.748847,41 118.126667,41 Z M198.972222,93.4529332 C198.972222,105.371137 201.764787,114.7353 207.35,121.545703 C212.935213,128.356105 220.963837,131.761255 231.436111,131.761255 C241.908386,131.761255 249.937009,128.356105 255.522222,121.545703 C261.107435,114.7353 263.9,105.371137 263.9,93.4529332 C263.9,81.5347289 261.107435,72.2360498 255.522222,65.5566166 C249.937009,58.8771835 241.908386,55.5375171 231.436111,55.5375171 C220.963837,55.5375171 212.935213,58.8771835 207.35,65.5566166 C201.764787,72.2360498 198.972222,81.5347289 198.972222,93.4529332 Z M180.122222,93.4529332 C180.122222,85.2018687 181.343969,77.8349574 183.7875,71.3519782 C186.231031,64.868999 189.721737,59.3683718 194.259722,54.8499318 C198.797708,50.3314917 204.208302,46.8935998 210.491667,44.5361528 C216.775031,42.1787058 223.756443,41 231.436111,41 C239.115779,41 246.097191,42.1787058 252.380556,44.5361528 C258.66392,46.8935998 264.074514,50.3314917 268.6125,54.8499318 C273.150486,59.3683718 276.641191,64.868999 279.084722,71.3519782 C281.528253,77.8349574 282.75,85.2018687 282.75,93.4529332 C282.75,101.703998 281.528253,109.103651 279.084722,115.652115 C276.641191,122.200578 273.150486,127.733947 268.6125,132.252387 C264.074514,136.770828 258.66392,140.241461 252.380556,142.664393 C246.097191,145.087325 239.115779,146.298772 231.436111,146.298772 C223.756443,146.298772 216.775031,145.087325 210.491667,142.664393 C204.208302,140.241461 198.797708,136.770828 194.259722,132.252387 C189.721737,127.733947 186.231031,122.200578 183.7875,115.652115 C181.343969,109.103651 180.122222,101.703998 180.122222,93.4529332 Z M326.733333,136.476126 C326.733333,139.488419 325.930471,141.551154 324.324722,142.664393 C322.718973,143.777632 320.519829,144.334243 317.727222,144.334243 C314.934616,144.334243 312.770378,143.777632 311.234444,142.664393 C309.698511,141.551154 308.930556,139.488419 308.930556,136.476126 L308.930556,50.4297408 C308.930556,47.5484167 309.628697,45.583907 311.025,44.5361528 C312.421303,43.4883986 314.515727,42.9645293 317.308333,42.9645293 C320.10094,42.9645293 322.23027,43.4883986 323.696389,44.5361528 C325.162507,45.583907 325.895556,47.5484167 325.895556,50.4297408 L325.895556,59.6630286 C327.85038,56.2578274 330.503317,53.1800956 333.854444,50.4297408 C336.647051,48.0722938 340.312292,45.9113332 344.850278,43.946794 C349.388263,41.9822548 355.078114,41 361.92,41 C372.950796,41 381.887003,43.8812809 388.728889,49.6439291 C395.570775,55.4065772 398.991667,64.2468708 398.991667,76.165075 L398.991667,137.45839 C398.991667,142.042315 396.129288,144.334243 390.404444,144.334243 C384.26071,144.334243 381.188889,142.042315 381.188889,137.45839 L381.188889,80.2905866 C381.188889,72.5633993 379.478443,66.6698702 376.0575,62.6098226 C372.636557,58.5497751 366.458008,56.5197817 357.521667,56.5197817 C352.076084,56.5197817 347.398538,57.6657457 343.488889,59.957708 C339.57924,62.2496704 336.402697,65.2291768 333.959167,68.8963165 C331.515636,72.5634563 329.700469,76.6561848 328.513611,81.1746248 C327.326753,85.6930649 326.733333,90.1786953 326.733333,94.6316508 L326.733333,136.476126 Z M475.648333,55.3410641 C470.761272,55.3410641 466.502611,56.0941262 462.872222,57.6002729 C459.241834,59.1064195 456.170013,61.1364129 453.656667,63.6903138 C451.143321,66.2442147 449.153618,69.2564629 447.6875,72.7271487 C446.221382,76.1978345 445.278891,79.8321775 444.86,83.6302865 L505.808333,83.6302865 C505.389442,79.9631467 504.516766,76.3942875 503.190278,72.9236016 C501.86379,69.4529158 499.978809,66.4406676 497.535278,63.8867667 C495.091747,61.3328658 492.054833,59.2701306 488.424444,57.6984993 C484.794056,56.126868 480.535395,55.3410641 475.648333,55.3410641 Z M523.820556,91.2919509 C523.820556,96.0068449 520.958177,98.3642565 515.233333,98.3642565 L444.022222,98.3642565 C444.022222,108.972768 446.849694,117.158225 452.504722,122.920873 C458.15975,128.683521 466.153467,131.564802 476.486111,131.564802 C480.535391,131.564802 484.061004,131.073675 487.063056,130.091405 C490.065108,129.109136 492.613323,127.93043 494.707778,126.555252 C496.802233,125.180075 498.512679,123.772176 499.839167,122.331514 C501.165655,120.890852 502.247774,119.646663 503.085556,118.598909 C504.062968,117.289216 505.005458,116.306961 505.913056,115.652115 C506.820653,114.997268 508.182028,114.66985 509.997222,114.66985 C511.952047,114.66985 513.871935,115.259203 515.756944,116.437926 C517.641954,117.61665 518.584444,119.188258 518.584444,121.152797 C518.584444,122.855397 517.816489,124.885391 516.280556,127.242838 C515.023883,129.076408 513.383251,131.073659 511.358611,133.234652 C509.333971,135.395645 506.750849,137.45838 503.609167,139.42292 C500.467484,141.387459 496.662615,143.02455 492.194444,144.334243 C487.726274,145.643936 482.490215,146.298772 476.486111,146.298772 C468.666813,146.298772 461.58068,145.021841 455.2275,142.46794 C448.87432,139.914039 443.463726,136.312438 438.995556,131.663029 C434.527385,127.013619 431.106493,121.447509 428.732778,114.964529 C426.359062,108.48155 425.172222,101.376573 425.172222,93.6493861 C425.172222,85.7912295 426.359062,78.6535109 428.732778,72.2360164 C431.106493,65.8185218 434.492478,60.2851529 438.890833,55.6357435 C443.289189,50.9863342 448.595062,47.3847331 454.808611,44.8308322 C461.022161,42.2769313 467.968665,41 475.648333,41 C483.467632,41 490.379229,42.2769313 496.383333,44.8308322 C502.387437,47.3847331 507.414054,50.9208505 511.463333,55.4392906 C515.512613,59.9577306 518.584434,65.2946486 520.678889,71.4502046 C522.773344,77.6057607 523.820556,84.2196099 523.820556,91.2919509 Z M576.391111,179.499318 C575.413699,181.332888 574.366487,182.708045 573.249444,183.624829 C572.132402,184.541614 570.456863,185 568.222778,185 C565.849062,185 563.824453,184.377905 562.148889,183.133697 C560.473325,181.889489 559.635556,180.154172 559.635556,177.927694 C559.635556,177.272848 559.740277,176.487044 559.949722,175.570259 C560.159168,174.653474 560.612959,173.540252 561.311111,172.230559 L576.600556,140.012278 L539.947778,57.1091405 C539.389256,55.7994477 538.830744,54.5880001 538.272222,53.4747613 C537.713701,52.3615224 537.434444,51.2810421 537.434444,50.2332879 C537.434444,48.0068102 538.516563,46.2387514 540.680833,44.9290587 C542.845103,43.6193659 545.25369,42.9645293 547.906667,42.9645293 C551.118164,42.9645293 553.491844,44.7980717 555.027778,48.4652115 L586.235,120.366985 L619.117778,48.0723056 C619.95556,46.2387357 620.863143,44.9290626 621.840556,44.1432469 C622.817968,43.3574313 624.144436,42.9645293 625.82,42.9645293 C628.333346,42.9645293 630.637212,43.5538822 632.731667,44.7326057 C634.826122,45.9113292 635.873333,47.6139043 635.873333,49.840382 C635.873333,50.7571669 635.628984,51.7721636 635.140278,52.8854025 C634.651572,53.9986413 634.127966,55.1446053 633.569444,56.3233288 L576.391111,179.499318 Z" id="money"></path>
            </g>
        </g>
    </g>
</svg>