<?xml version="1.0" encoding="UTF-8"?>
<svg width="233px" height="48px" viewBox="0 0 233 48" version="1.1" xmlns="http://www.w3.org/2000/svg" xmlns:xlink="http://www.w3.org/1999/xlink">
    <!-- Generator: Sketch 50.2 (55047) - http://www.bohemiancoding.com/sketch -->
    <title>Logo/medium/primary-pay</title>
    <desc>Created with Sketch.</desc>
    <defs></defs>
    <g id="Logo/medium/primary-pay" stroke="none" stroke-width="1" fill="none" fill-rule="evenodd">
        <g id="Logo/item/zip/no-divider">
            <g id="Asset-1">
                <g id="Logo/Icons/colour-primary" fill-rule="nonzero">
                    <path d="M47.4820408,17.9753514 L36.7564286,27.5961081 L10.1921939,27.5961081 C7.71441046,27.592779 5.32101799,28.4935007 3.46331633,30.1284324 L16.8612245,18.1076757 L17.0667857,17.9260541 L33.852551,2.85405405 C36.5591386,0.426347468 40.3590117,-0.377130752 43.820795,0.746281862 C47.2825782,1.86969448 49.8803442,4.74932482 50.6355399,8.30044402 C51.3907355,11.8515632 50.1886284,15.5346718 47.4820408,17.9623784 L47.4820408,17.9753514 Z" id="Shape" fill="#F15C3E"></path>
                    <ellipse id="Oval" fill="#F8991C" cx="10.1921939" cy="10.4224865" rx="10.1921939" ry="10.163027"></ellipse>
                    <path d="M10.1921939,27.5961081 C7.71441046,27.592779 5.32101799,28.4935007 3.46331633,30.1284324 L3.37744898,30.2062703 C-0.807291326,33.9591795 -1.14862844,40.3842079 2.61505118,44.5569728 C6.37873081,48.7297378 12.8221983,49.0700983 17.0069388,45.3171892 L36.7590306,27.5987027 L10.1921939,27.5961081 Z" id="Shape" fill="#21285E"></path>
                    <path d="M36.7427076,27.6038915 L16.9885419,45.322378 C15.1180395,46.9995871 12.689486,47.924241 10.1739792,47.9170987 L40.6508684,47.9169726 C46.5294563,47.8233016 50.6799481,43.4132396 50.6799481,37.7552428 C50.6799481,32.0972461 46.2155091,27.6821815 40.6508684,27.5935131 L36.7427076,27.6038915 Z" id="Shape" fill="#00AEB8"></path>
                </g>
                <g id="Logo/item/zip/text/primary" transform="translate(61.824219, 0.258065)" fill="#272560" fill-rule="nonzero">
                    <path d="M3.16628676,39.1628108 C2.31776853,39.1940298 1.49687156,38.8602711 0.913602941,38.2469189 C0.342609011,37.6277236 0.0381083412,36.8109823 0.0652573529,35.9714595 C0.0572979956,35.1259044 0.267597834,34.2924443 0.676066176,33.5507027 C1.03491869,32.8874586 1.47314916,32.2697853 1.98121324,31.7111351 L14.5915441,17.5394595 L3.59959559,17.5394595 C2.53459559,17.5394595 1.77238971,17.1762162 1.35474265,16.4549189 C0.948098335,15.7303279 0.745225879,14.9102753 0.767426471,14.0808649 C0.738061739,13.2815117 0.969739096,12.4941772 1.42783088,11.8365405 C1.88187755,11.2141824 2.6208139,10.8610799 3.39338235,10.8972973 L22.8139706,10.8972973 C23.6350864,10.8596928 24.4358971,11.1578391 25.0301103,11.7223784 C25.5808824,12.2698378 25.8601838,13.0482162 25.8601838,14.0341622 C25.8834308,14.8019217 25.7223688,15.5641436 25.3903309,16.2577297 C25.0717061,16.8620223 24.6721774,17.4206169 24.2026471,17.9182703 L11.0702574,32.5180541 L23.5135294,32.5180541 C24.2621058,32.4995336 24.9747224,32.8368339 25.4320956,33.4261622 C25.9194405,34.0850478 26.1653709,34.8898144 26.1290441,35.7068108 C26.1645753,36.5580121 25.959294,37.4020642 25.5365074,38.1431351 C25.1110294,38.8203243 24.3566544,39.1654054 23.296875,39.1654054 L3.16628676,39.1628108 Z" id="Shape"></path>
                    <path d="M33.6727941,39.5364324 C30.2167647,39.5364324 29.4963235,37.7721081 29.4963235,36.2931892 L29.4963235,14.7061622 C29.4963235,13.5775135 29.8382721,12.6642162 30.5169485,11.9922162 C31.195625,11.3202162 32.2762868,10.9777297 33.7328309,10.9777297 C34.9596691,10.9777297 35.9306985,11.2553514 36.6224265,11.8054054 C37.3141544,12.3554595 37.6978676,13.2428108 37.6978676,14.3844324 L37.6978676,36.179027 C37.6978676,37.3647568 37.3219853,38.2365405 36.5806618,38.7736216 C35.8393382,39.3107027 34.8865809,39.5364324 33.6727941,39.5364324 Z M33.6727941,8.66075676 C32.3258824,8.66075676 31.2217279,8.26897297 30.3864338,7.49578378 C29.5511397,6.72259459 29.1152206,5.65621622 29.1152206,4.34594595 C29.0831393,3.18434231 29.5423354,2.06254907 30.3812132,1.25318919 C31.2086765,0.44627027 32.3180515,0.0337297297 33.6727941,0.0337297297 C34.7899644,0.0361513255 35.87589,0.400503828 36.7659926,1.07156757 C37.7370221,1.78248649 38.2303676,2.88778378 38.2303676,4.35632432 C38.2303676,5.66659459 37.8022794,6.72778378 36.9591544,7.50875676 C36.1160294,8.28972973 35.011875,8.66854054 33.6727941,8.66854054 L33.6727941,8.66075676 Z" id="Shape"></path>
                    <path d="M46.7086029,47.8083941 C43.4770588,47.8083941 42.7931618,46.0155105 42.7931618,44.51063 L42.7931618,13.9745281 C42.7652639,13.018087 43.135448,12.092551 43.8163971,11.4162312 C44.4924632,10.7442242 45.5757353,10.4017342 47.0322794,10.4017342 C47.9382227,10.3925854 48.8332248,10.5989792 49.6425735,11.0036864 C50.5013603,11.4421774 50.9477206,12.3009972 50.9477206,13.5334425 C51.1217402,13.3345215 51.3088113,13.1304112 51.5089338,12.9211118 C52.0575247,12.3675743 52.6709819,11.8814974 53.3361397,11.4733129 C54.9528488,10.4702784 56.8260316,9.95142255 58.7316176,9.97881083 C60.5576961,9.94354566 62.3668233,10.3326959 64.0148529,11.1152551 C65.5230873,11.8552849 66.8362473,12.9357582 67.849375,14.270315 C68.9052064,15.6977415 69.6760908,17.3130441 70.1203309,19.0288511 C70.6285133,20.9676437 70.8777616,22.9644884 70.8616544,24.9679399 C70.8803167,27.0087255 70.5935276,29.0409229 70.0106985,30.9978406 C69.495699,32.7361349 68.6503854,34.3602433 67.5204779,35.7823229 C66.4317709,37.1222807 65.0521538,38.2000106 63.4849632,38.9347881 C61.7796966,39.7120348 59.9208512,40.0994812 58.0451103,40.0686378 C56.7889812,40.1044975 55.53579,39.9290515 54.3384926,39.5497135 C53.4786314,39.2599423 52.661395,38.8577039 51.9083088,38.3535929 C51.5001287,38.0781101 51.1237169,37.7587759 50.7858824,37.4013668 L50.7858824,44.3549527 C50.7858824,45.5640464 50.454375,46.4565962 49.7991912,47.006656 C49.1440074,47.5567158 48.1364338,47.8083941 46.7086029,47.8083941 Z M56.6433824,16.8960721 C55.7539389,16.8746875 54.8739148,17.0810869 54.0879044,17.4954297 C53.3482431,17.9123334 52.7143097,18.491873 52.2345956,19.1897176 C51.6956444,19.9792634 51.3023213,20.8578289 51.0730147,21.7843392 C50.8028536,22.8610212 50.6704233,23.9672803 50.6788603,25.0769141 C50.6788603,27.6040755 51.2009191,29.630475 52.2450368,31.1016255 C53.2891544,32.5727759 54.7065441,33.2603507 56.6538235,33.2603507 C58.6011029,33.2603507 60.0184926,32.5234781 61.0025735,31.0056245 C61.9866544,29.4877708 62.5113235,27.4665606 62.5113235,25.0769141 C62.5145887,23.9702043 62.3777794,22.8674818 62.1041176,21.7947177 C61.8747774,20.8722019 61.4899781,19.9949338 60.9660294,19.2000961 C60.4999907,18.5012909 59.8737641,17.9223969 59.1388235,17.5109974 C58.3739931,17.0962721 57.5145373,16.8844854 56.6433824,16.8960721 Z" id="Shape"></path>
                </g>
            </g>
        </g>
        <g id="Logo/x-large/item/divider/colour" transform="translate(139.000000, 0.000000)" fill="#00B6BD">
            <rect id="Rectangle-15" x="0" y="0" width="2" height="48" rx="1"></rect>
        </g>
        <g id="Logo/item/sub/pay" transform="translate(151.655286, 0.258065)" fill="#272560">
            <path d="M-0.00731612903,13.0282378 C-0.00731612903,12.2785692 0.1642628,11.7674392 0.507425806,11.4948324 C0.850588813,11.2222257 1.3653256,11.0859243 2.05165161,11.0859243 C2.73797763,11.0859243 3.26129336,11.2222257 3.62161452,11.4948324 C3.98193567,11.7674392 4.16209355,12.2785692 4.16209355,13.0282378 L4.16209355,15.5328 C4.88273586,14.1356903 5.97226206,12.9600913 7.43070484,12.0059676 C8.88914761,11.0518439 10.6649895,10.5747892 12.7582839,10.5747892 C14.5427315,10.5747892 16.1384155,10.9070237 17.5453839,11.5715027 C18.9523522,12.2359817 20.1448258,13.1645346 21.1228403,14.3571892 C22.1008549,15.5498438 22.8386443,16.9810079 23.3362306,18.6507243 C23.833817,20.3204408 24.0826065,22.1775465 24.0826065,24.2220973 C24.0826065,26.2325722 23.833817,28.0811591 23.3362306,29.7679135 C22.8386443,31.4546679 22.1008549,32.9028696 21.1228403,34.1125622 C20.1448258,35.3222547 18.9523522,36.2678452 17.5453839,36.9493622 C16.1384155,37.6308791 14.5427315,37.9716324 12.7582839,37.9716324 C10.5963569,37.9716324 8.82909396,37.5627284 7.45644194,36.7449081 C6.08378991,35.9270878 5.05431633,34.9729784 4.36799032,33.8825514 L4.36799032,45.9453405 C4.36799032,46.729085 4.17067455,47.2657715 3.7760371,47.5554162 C3.38139964,47.8450609 2.84092601,47.9898811 2.1546,47.9898811 C1.46827399,47.9898811 0.936379307,47.8450609 0.5589,47.5554162 C0.181420693,47.2657715 -0.00731612903,46.729085 -0.00731612903,45.9453405 L-0.00731612903,13.0282378 Z M19.449929,24.3243243 C19.449929,21.3256499 18.8322449,18.9403764 17.5968581,17.1684324 C16.3614712,15.3964884 14.5255767,14.5105297 12.0891194,14.5105297 C10.8537325,14.5105297 9.74704844,14.7746136 8.76903387,15.3027892 C7.7910193,15.8309648 6.96744044,16.5550657 6.29827258,17.4751135 C5.62910472,18.3951614 5.11436793,19.4600156 4.75404677,20.6697081 C4.39372562,21.8794006 4.21356774,23.1657445 4.21356774,24.5287784 C4.21356774,27.5615287 4.89988346,29.9297645 6.27253548,31.6335568 C7.64518751,33.3373491 9.56687152,34.1892324 12.0376452,34.1892324 C13.273032,34.1892324 14.3539792,33.9507051 15.2805194,33.4736432 C16.2070595,32.9965814 16.9791647,32.3235935 17.5968581,31.4546595 C18.2145515,30.5857254 18.6778146,29.5464277 18.9866613,28.3367351 C19.295508,27.1270426 19.449929,25.7895857 19.449929,24.3243243 Z M47.1945194,21.104173 L47.1945194,20.0819027 C47.1945194,18.1395795 46.6883615,16.6913777 45.6760306,15.7372541 C44.6636998,14.7831304 43.025121,14.3060757 40.7602452,14.3060757 C39.8680213,14.3060757 39.0959162,14.4083017 38.4439065,14.6127568 C37.7918967,14.8172118 37.2342652,15.0557392 36.7709952,15.3283459 C36.3077251,15.6009527 35.9302515,15.8905931 35.6385629,16.1972757 C35.3468743,16.5039583 35.0980849,16.776561 34.8921871,17.0150919 C34.5490241,17.424002 34.2573399,17.6966047 34.0171258,17.8329081 C33.7769117,17.9692115 33.4680696,18.0373622 33.0905903,18.0373622 C32.5415295,18.0373622 32.0353717,17.8755043 31.5721016,17.5517838 C31.1088316,17.2280632 30.8772,16.8106404 30.8772,16.2995027 C30.8772,16.0268959 30.9029368,15.8054063 30.9544113,15.635027 C31.0058857,15.4646478 31.0830963,15.2772335 31.1860452,15.0727784 C31.2203615,14.9705508 31.4262562,14.6809105 31.8037355,14.2038486 C32.1812148,13.7267868 32.7560042,13.2156568 33.528121,12.6704432 C34.3002377,12.1252297 35.2953955,11.6396562 36.5136242,11.2137081 C37.7318529,10.78776 39.2160106,10.5747892 40.9661419,10.5747892 C42.9221711,10.5747892 44.5779077,10.8218354 45.9334016,11.3159351 C47.2888955,11.8100349 48.3784217,12.4659851 49.2020129,13.2838054 C50.0256041,14.1016257 50.6261304,15.0472163 51.0036097,16.1206054 C51.381089,17.1939946 51.5698258,18.3099618 51.5698258,19.4685405 L51.5698258,35.7737514 C51.5698258,36.8982543 50.8320364,37.4604973 49.3564355,37.4604973 C48.3612628,37.4604973 47.7521576,37.2390076 47.5291016,36.7960216 C47.3060457,36.3530356 47.1945194,35.7396796 47.1945194,34.9559351 L47.1945194,33.4225297 C46.8513563,33.8995916 46.4395669,34.3936839 45.9591387,34.9048216 C45.4787105,35.4159593 44.8867632,35.8844952 44.183279,36.3104432 C43.4797949,36.7363913 42.6390581,37.0856635 41.6610435,37.3582703 C40.683029,37.630877 39.559187,37.7671784 38.2894839,37.7671784 C36.7452503,37.7671784 35.4155136,37.579764 34.3002339,37.2049297 C33.1849541,36.8300954 32.2584279,36.3104466 31.5206274,35.6459676 C30.782827,34.9814886 30.2337744,34.1977559 29.8734532,33.2947459 C29.5131321,32.391736 29.3329742,31.4291078 29.3329742,30.4068324 C29.3329742,29.0778744 29.5731847,27.8511624 30.0536129,26.7266595 C30.5340411,25.6021565 31.35762,24.6395283 32.5243742,23.8387459 C33.6911284,23.0379636 35.2439177,22.4075699 37.1827887,21.9475459 C39.1216597,21.487522 41.5666594,21.2234382 44.5178613,21.1552865 L47.1945194,21.104173 Z M44.3634387,24.5798919 C42.1671955,24.6139677 40.3827746,24.7673067 39.0101226,25.0399135 C37.6374706,25.3125203 36.5565233,25.6788301 35.7672484,26.1388541 C34.9779735,26.598878 34.4374998,27.1526022 34.1458113,27.8000432 C33.8541227,28.4474843 33.7082806,29.180104 33.7082806,29.9979243 C33.7082806,31.1565031 34.1114911,32.1532066 34.9179242,32.9880649 C35.7243573,33.8229231 37.054094,34.2403459 38.9071742,34.2403459 C40.5200403,34.2403459 41.9870402,33.8740361 43.3082177,33.1414054 C44.6293953,32.4087747 45.6331321,31.4972595 46.3194581,30.4068324 C46.9028352,29.4867846 47.1945194,28.2430349 47.1945194,26.6755459 L47.1945194,24.5287784 L44.3634387,24.5798919 Z M66.0340742,46.6098162 C65.7938601,47.0868781 65.5364917,47.4446691 65.2619613,47.6832 C64.9874309,47.9217309 64.5756415,48.0409946 64.0265806,48.0409946 C63.4432035,48.0409946 62.9456246,47.8791368 62.533829,47.5554162 C62.1220334,47.2316957 61.9161387,46.7801975 61.9161387,46.2009081 C61.9161387,46.0305289 61.9418755,45.8260769 61.99335,45.5875459 C62.0448245,45.349015 62.1563508,45.0593747 62.3279323,44.7186162 L66.0855484,36.336 L57.0775645,14.7660973 C56.9402993,14.4253388 56.8030362,14.110142 56.665771,13.8204973 C56.5285058,13.5308526 56.4598742,13.2497311 56.4598742,12.9771243 C56.4598742,12.3978349 56.7258215,11.9378179 57.2577242,11.5970595 C57.7896269,11.256301 58.3815742,11.0859243 59.0335839,11.0859243 C59.8228588,11.0859243 60.4062271,11.562979 60.7837065,12.5171027 L68.4533613,31.2246486 L76.5348097,12.4148757 C76.7407075,11.9378138 76.9637601,11.5970605 77.2039742,11.3926054 C77.4441883,11.1881503 77.7701883,11.0859243 78.1819839,11.0859243 C78.7996773,11.0859243 79.3658877,11.2392633 79.8806323,11.5459459 C80.3953768,11.8526286 80.6527452,12.2956079 80.6527452,12.8748973 C80.6527452,13.1134282 80.5926925,13.3775121 80.4725855,13.6671568 C80.3524784,13.9568014 80.2237942,14.2549606 80.086529,14.5616432 L66.0340742,46.6098162 Z" id="pay"></path>
        </g>
    </g>
</svg>