<?xml version="1.0" encoding="UTF-8"?>
<svg width="49px" height="24px" viewBox="0 0 49 24" version="1.1" xmlns="http://www.w3.org/2000/svg" xmlns:xlink="http://www.w3.org/1999/xlink">
    <title>A9E919ED-977F-4DA8-8241-56FD370CD436</title>
    <defs>
        <filter id="filter-1">
            <feColorMatrix in="SourceGraphic" type="matrix" values="0 0 0 0 1.000000 0 0 0 0 1.000000 0 0 0 0 1.000000 0 0 0 1.000000 0"></feColorMatrix>
        </filter>
    </defs>
    <g id="FINAL-UI-Design" stroke="none" stroke-width="1" fill="none" fill-rule="evenodd">
        <g id="Header-Desktop-1600px" transform="translate(-1133.000000, -7.000000)">
            <g transform="translate(0.000000, -4.000000)" id="Header-1600px">
                <g>
                    <g id="KEY-LINE">
                        <g filter="url(#filter-1)" id="Keyline---Zip-Buy-Now-Pay-Later">
                            <g transform="translate(1134.000000, 12.000000)">
                                <g id="Buy-Now-Pay-Later">
                                    <g id="Bubble-Impact">
                                        <path d="M10.9656806,0.17254902 L36.686607,0.17254902 C42.6633139,0.17254902 47.5084967,5.01378393 47.5084967,10.9856209 L47.5084967,10.9856209 C47.5084967,16.9574579 42.6633139,21.7986928 36.686607,21.7986928 L10.9656806,21.7986928 C4.98897369,21.7986928 0.14379085,16.9574579 0.14379085,10.9856209 L0.14379085,10.9856209 C0.14379085,5.01378393 4.98897369,0.17254902 10.9656806,0.17254902 L10.9656806,0.17254902 Z" id="Path" stroke="#FFFFFF"></path>
                                        <path d="M23.5041393,14.6947888 C23.2973177,14.7024216 23.0971781,14.6206871 22.9549486,14.4702574 C22.8157418,14.3183966 22.7414451,14.1181947 22.7481271,13.9124273 C22.746218,13.7050697 22.797446,13.5008925 22.8970386,13.3189775 C22.98454,13.1564626 23.0912917,13.0049199 23.2152255,12.8680066 L26.2895478,9.39381294 L23.6097773,9.39381294 C23.3501368,9.39381294 23.1643156,9.30476367 23.0624958,9.12793727 C22.9633805,8.95031578 22.9139025,8.74931885 22.9193116,8.54593668 C22.9121524,8.35002829 22.9686306,8.15698219 23.0803142,7.99573941 C23.1910433,7.84324253 23.3711371,7.75657851 23.5595038,7.76548344 L28.2941255,7.76548344 C28.4942651,7.75626048 28.6894728,7.82940809 28.8344069,7.96775249 C28.9686818,8.10196246 29.0367738,8.29278233 29.0367738,8.53448749 C29.0425012,8.72276309 29.0032051,8.90960754 28.9222265,9.07959624 C28.8445889,9.22779966 28.7472237,9.36471292 28.6326764,9.48667861 L25.4310794,13.0658232 L28.4646737,13.0658232 C28.6471539,13.0612117 28.820884,13.1439003 28.9324085,13.2884464 C29.0512513,13.4500072 29.1112296,13.6471877 29.1023203,13.8475486 C29.1109114,14.0561783 29.060956,14.2632178 28.9578635,14.4448147 C28.8541345,14.610828 28.6702225,14.6954248 28.4118547,14.6954248 L23.5041393,14.6947888 L23.5041393,14.6947888 Z" id="Path" fill="#FFFFFF" fill-rule="nonzero"></path>
                                        <path d="M30.9583602,14.7816993 C30.1189174,14.7816993 29.9439278,14.348844 29.9439278,13.9860094 L29.9439278,8.68989729 C29.9439278,8.4129972 30.0269845,8.18893092 30.1918297,8.02406396 C30.356675,7.85919701 30.6191594,7.77517216 30.9729426,7.77517216 C31.2709321,7.77517216 31.5067877,7.84328321 31.674803,7.97823222 C31.8428184,8.11318124 31.9360194,8.330882 31.9360194,8.61096485 L31.9360194,13.9580011 C31.9360194,14.2489054 31.8447204,14.4627868 31.6646587,14.5945531 C31.484597,14.7263193 31.2531796,14.7816993 30.9583602,14.7816993 L30.9583602,14.7816993 Z M30.9583602,7.20673127 C30.6312057,7.20673127 30.3630152,7.11061193 30.1601287,6.92091945 C29.9572423,6.73122698 29.8513609,6.46960413 29.8513609,6.1481454 C29.8435941,5.86312927 29.9550232,5.58797969 30.1588607,5.38937549 C30.3598451,5.19140784 30.6293037,5.09019608 30.9583602,5.09019608 C31.2297208,5.09083263 31.4934732,5.18010904 31.7096741,5.34481685 C31.9455297,5.51923209 32.0653595,5.79040321 32.0653595,6.15069161 C32.0653595,6.47215034 31.9613802,6.73250008 31.7565916,6.92410221 C31.5518031,7.11570435 31.2836126,7.20864093 30.9583602,7.20864093 L30.9583602,7.20673127 L30.9583602,7.20673127 Z" id="Shape" fill="#FFFFFF" fill-rule="nonzero"></path>
                                        <path d="M34.1132245,16.7947712 C33.3252854,16.7947712 33.1585326,16.3545693 33.1585326,15.98508 L33.1585326,8.48747327 C33.1516906,8.25256089 33.241909,8.02545238 33.4080254,7.85934146 C33.5728689,7.69434537 33.8370003,7.61025471 34.1921456,7.61025471 C34.4129977,7.60802503 34.6313039,7.65867055 34.8286069,7.75805043 C35.0380026,7.86571196 35.1468375,8.07657568 35.1468375,8.37917468 C35.1893213,8.33028105 35.2348283,8.28027259 35.2836767,8.22883076 C35.4174927,8.09297973 35.567061,7.97353276 35.7291995,7.87335657 C36.1233282,7.62713654 36.5801482,7.49972644 37.0447649,7.50641547 C37.4899696,7.49781529 37.9311963,7.59337287 38.3329625,7.7854436 C38.700678,7.96716226 39.020818,8.2324938 39.267924,8.56009702 C39.5253726,8.91063407 39.7132878,9.30719802 39.8216453,9.72844767 C39.9455961,10.2044837 40.0063782,10.694694 40.0024003,11.1866563 C40.0070147,11.6876965 39.9370039,12.1866663 39.7949139,12.6671617 C39.669372,13.0939855 39.4631585,13.4927792 39.1877299,13.8418828 C38.9223256,14.1709194 38.5859558,14.4354547 38.2037608,14.6158992 C37.7879925,14.8066958 37.334673,14.9019349 36.8773756,14.8942903 C36.5710786,14.9030497 36.2655773,14.8600488 35.9736007,14.7668802 C35.7638867,14.6956898 35.5646743,14.596947 35.3810552,14.4731999 C35.2816082,14.4055133 35.1897986,14.3271561 35.1073769,14.2394024 L35.1073769,15.9466977 C35.1073769,16.2435633 35.0265463,16.4627087 34.8667946,16.5977634 C34.7070428,16.7329773 34.4613688,16.7947712 34.1132245,16.7947712 L34.1132245,16.7947712 Z M36.5355959,9.20479214 C36.3187218,9.19953648 36.1042343,9.25018199 35.9125004,9.35195081 C35.7322227,9.45435668 35.5775627,9.59657821 35.4606129,9.7679448 C35.3291837,9.96176742 35.2332371,10.1775683 35.1773876,10.4049953 C35.1115139,10.6693713 35.0792135,10.9409141 35.081282,11.2134124 C35.081282,11.8338996 35.2085742,12.3314361 35.4631587,12.6926437 C35.7177432,13.0538514 36.0633417,13.2226697 36.5381418,13.2226697 C37.0129419,13.2226697 37.3585403,13.0417474 37.5984862,12.6690728 C37.8384321,12.2963983 37.9663747,11.8001359 37.9663747,11.2134124 C37.9671564,10.9417104 37.9337422,10.6709639 37.8670729,10.4075435 C37.8112234,10.1810721 37.7173453,9.96558972 37.5895757,9.770493 C37.4759674,9.59896715 37.3232167,9.45674562 37.1440529,9.35577312 C36.9575697,9.2540043 36.7480149,9.20192542 36.5355959,9.20479214 L36.5355959,9.20479214 Z" id="Shape" fill="#FFFFFF" fill-rule="nonzero"></path>
                                        <path d="M18.2949798,5.40249254 C19.1415618,5.67821005 19.7767369,6.38485557 19.9614196,7.2564222 C20.1461024,8.12798882 19.8521371,9.03187107 19.1902378,9.62756099 L19.1902378,9.63074479 L16.7241569,11.85 L17.5374765,11.848366 C18.8422408,11.8692498 19.8992722,12.896216 19.9817471,14.1748564 L19.9869281,14.3359427 C19.9869281,15.6883422 18.9528458,16.8009714 17.5374765,16.8235294 L17.5374765,16.8235294 L10.0941176,16.8235294 C10.1095098,16.8235729 10.1248886,16.8234733 10.1402523,16.8232312 C9.49511031,16.8361148 8.84877257,16.6015173 8.3560903,16.1274346 L8.23224735,15.9995479 C7.35062472,15.0226674 7.3888104,13.5414712 8.29062213,12.6106292 L8.41894424,12.4872066 L8.43997153,12.4681557 C8.60847308,12.3199237 8.79495844,12.1963654 8.99381905,12.0995778 L11.7023937,9.6632196 L11.7526605,9.61864633 L15.8573582,5.91970166 C16.5192574,5.32385255 17.4483978,5.12677502 18.2949798,5.40249254 Z M10.0797386,5.28 C11.4535606,5.28 12.5673203,6.39375961 12.5673203,7.7675817 C12.5673203,9.14140379 11.4535606,10.2551634 10.0797386,10.2551634 C8.70591648,10.2551634 7.59215686,9.14140379 7.59215686,7.7675817 C7.59215686,6.39375961 8.70591648,5.28 10.0797386,5.28 Z" id="Combined-Shape" fill="#FFFFFF" fill-rule="nonzero"></path>
                                    </g>
                                </g>
                            </g>
                        </g>
                    </g>
                </g>
            </g>
        </g>
    </g>
</svg>