<?xml version="1.0" encoding="UTF-8"?>
<svg width="30px" height="35px" viewBox="0 0 30 35" version="1.1" xmlns="http://www.w3.org/2000/svg" xmlns:xlink="http://www.w3.org/1999/xlink">
    <!-- Generator: Sketch 49.3 (51167) - http://www.bohemiancoding.com/sketch -->
    <title>Pictorial/64px/apply-in-minutes</title>
    <desc>Created with Sketch.</desc>
    <defs></defs>
    <g id="Page-1" stroke="none" stroke-width="1" fill="none" fill-rule="evenodd">
        <g id="Artboard-2-Copy-4" transform="translate(-55.000000, -356.000000)">
            <g id="Group-5" transform="translate(55.000000, 337.000000)">
                <g id="Pictorial/64px/apply-in-minutes" transform="translate(0.000000, 19.000000)">
                    <path d="M17.4,3.46497995 L17.4,5.34282353 L12.6,5.34282353 L12.6,3.46497995 C11.9016579,3.22411805 11.4,2.56111386 11.4,1.78094118 C11.4,0.797354524 12.1973545,6.24771147e-16 13.1809412,4.4408921e-16 L16.8190588,6.66133815e-16 C17.8026455,4.85451878e-16 18.6,0.797354524 18.6,1.78094118 C18.6,2.56111386 18.0983421,3.22411805 17.4,3.46497995 Z" id="Combined-Shape" fill="#518EF3" transform="translate(15.000000, 2.671412) scale(-1, 1) translate(-15.000000, -2.671412) "></path>
                    <path d="M14.9058875,6.82694118 C15.8431458,5.89960679 17.3627417,5.89960679 18.3,6.82694118 L29.8029437,18.208089 L26.4088312,21.5662639 L14.9058875,10.1851161 C13.9686292,9.25778168 13.9686292,7.75427557 14.9058875,6.82694118 Z" id="Rectangle-26" fill="#518EF3" transform="translate(22.002944, 13.848852) scale(-1, 1) translate(-22.002944, -13.848852) "></path>
                    <ellipse id="Oval" fill="#A8C6F9" transform="translate(15.000000, 19.590353) scale(-1, 1) translate(-15.000000, -19.590353) " cx="15" cy="19.5903529" rx="15" ry="14.8411765"></ellipse>
                    <path d="M16.7809412,16.6349106 L21.5302089,14.0023486 C22.3904731,13.5254963 23.4744203,13.8363131 23.9512725,14.6965774 C24.4281248,15.5568417 24.117308,16.6407888 23.2570437,17.1176411 L15.9345198,21.1765823 C15.8689922,21.2170528 15.8006444,21.2533944 15.7298393,21.2852443 C14.8891589,21.6789052 13.8753208,21.3590168 13.4185417,20.5349655 C13.2159083,20.1694052 13.1555072,19.7634537 13.2190588,19.380859 L13.2190588,10.0221176 C13.2190588,9.03853099 14.0164133,8.24117647 15,8.24117647 C15.9835867,8.24117647 16.7809412,9.03853099 16.7809412,10.0221176 L16.7809412,16.6349106 Z" id="Combined-Shape" fill="#FFFFFF" opacity="0.7"></path>
                    <path d="M16.7809412,16.6349106 L16.7809412,19.6602353 C16.7809412,20.3010835 16.4424584,20.8628748 15.9345198,21.1765823 L15.8396053,21.2291943 C15.8033924,21.2492675 15.766783,21.2679449 15.7298393,21.2852443 C15.5071098,21.3854337 15.2600646,21.4411765 15,21.4411765 C14.0164133,21.4411765 13.2190588,20.6438219 13.2190588,19.6602353 L13.2190588,19.380859 C13.3050618,18.8631026 13.6180665,18.3881207 14.1127705,18.1139018 L16.7809412,16.6349106 Z" id="Combined-Shape" fill="#FFFFFF"></path>
                </g>
            </g>
        </g>
    </g>
</svg>